<svg width="400" height="400" viewBox="0 0 400 400" fill="none" xmlns="http://www.w3.org/2000/svg">
<path d="M186.661 64.7396C186.689 64.7302 189.244 63.6246 195.619 63.3205C195.331 69.6289 194.24 72.2008 194.2 72.2881L193.469 73.877H202.587L204.337 73.8675L203.606 72.2786C203.594 72.2551 202.453 69.6973 202.156 63.3205C208.559 63.6104 211.133 64.7279 211.154 64.7349L212.746 65.4752L212.743 54.6216L211.154 55.3454C211.124 55.3524 208.549 56.4934 202.147 56.7975C202.453 50.3995 203.594 47.8252 203.606 47.804L204.36 46.201L193.5 46.2057L194.2 47.7875C194.209 47.8182 195.324 50.3925 195.619 56.7928C189.249 56.4816 186.691 55.3524 186.677 55.3454L185.074 54.591L185.077 65.4421L186.661 64.7396Z" fill="#662D91"/>
<path d="M376.091 131.305H21.7158V141.258H376.091V131.305Z" fill="#662D91"/>
<path d="M156.355 88.5337C172.805 88.5337 181.013 100.085 181.013 100.085H193.401C193.401 100.085 184.651 78.4582 156.687 78.4582C121.083 78.4582 112.556 101.309 55.8936 101.309C41.7255 101.309 22.2557 99.6277 21.7182 99.6277L21.7158 109.354C21.7158 109.354 32.6636 111.365 55.2524 111.365C119.343 111.365 124.15 88.5337 156.355 88.5337Z" fill="#662D91"/>
<path d="M204.407 100.085H216.795C216.795 100.085 225.004 88.5337 241.454 88.5337C273.656 88.5337 278.463 111.365 342.556 111.365C365.145 111.365 376.093 109.354 376.093 109.354L376.09 99.6277C375.553 99.6277 356.083 101.311 341.915 101.311C285.25 101.311 276.726 78.4582 241.122 78.4582C213.158 78.4582 204.407 100.085 204.407 100.085Z" fill="#662D91"/>
<path d="M340.552 303.383L326.883 323.935L313.218 303.383C311.93 301.493 309.356 301.002 307.465 302.287C305.572 303.572 305.084 306.149 306.369 308.042L322.741 332.104V347.894C322.741 350.18 324.597 352.033 326.883 352.033C329.173 352.033 331.025 350.18 331.025 347.894V332.104L347.4 308.042C348.687 306.149 348.197 303.572 346.304 302.287C344.418 301 341.837 301.493 340.552 303.383Z" fill="#662D91"/>
<path d="M205.599 301.928C203.314 301.928 201.461 303.778 201.459 306.065C201.459 306.065 201.442 327.744 201.442 334.09C201.442 339.488 195.745 344.224 188.564 344.224C180.836 344.224 175.688 338.937 175.688 333.998C175.688 327.649 175.671 306.065 175.671 306.065C175.671 303.778 173.816 301.928 171.529 301.928C169.24 301.928 167.39 303.781 167.39 306.067C167.39 306.067 167.404 327.548 167.404 333.302C167.404 344.795 177.246 352.506 188.564 352.506C199.868 352.506 209.724 344.821 209.724 333.302C209.724 330.931 209.741 306.067 209.741 306.067C209.741 303.781 207.885 301.928 205.599 301.928Z" fill="#662D91"/>
<path d="M88.1673 203.783C88.132 199.342 88.1084 195.422 88.1107 193.517C88.1131 191.973 88.1249 187.272 96.5031 187.209L101.392 187.168H101.524C108.58 187.168 111.133 191.275 111.162 195.132C111.18 197.367 110.341 199.399 108.799 200.86C106.869 202.69 103.846 203.673 100.063 203.699L88.1673 203.783ZM114.502 206.876C117.734 203.819 119.49 199.623 119.453 195.063C119.387 187.246 113.752 178.88 101.524 178.88H101.331L96.4513 178.922C86.2154 178.995 79.8409 184.58 79.8197 193.498C79.8079 199.467 80.0673 224.012 80.0743 225.054C80.1003 227.332 81.9485 229.156 84.2187 229.156H84.2682C86.5549 229.13 88.3936 227.259 88.3653 224.967C88.3653 224.847 88.2404 212.074 88.2404 212.074L100.119 211.987C106.044 211.947 111.018 210.179 114.502 206.876Z" fill="#662D91"/>
<path d="M286.103 186.993C288.395 186.993 290.25 185.138 290.25 182.849C290.25 180.56 288.395 178.702 286.103 178.702H258.156C255.867 178.702 254.017 180.553 254.01 182.84C254.01 183.879 253.948 208.427 254.01 214.398C254.099 223.314 260.516 228.852 270.752 228.852H286.103C288.395 228.852 290.25 226.996 290.25 224.707C290.25 222.413 288.395 220.561 286.103 220.561H270.752C262.367 220.561 262.315 215.858 262.298 214.311C262.284 212.904 262.279 210.388 262.277 207.38H282.207C284.493 207.38 286.349 205.525 286.349 203.234C286.349 200.945 284.493 199.089 282.207 199.089H262.277C262.279 194.594 262.284 190.105 262.289 186.993H286.103Z" fill="#662D91"/>
<path d="M51.6584 301.937H38.2023C27.9758 301.937 21.5636 307.472 21.4741 316.378C21.4128 322.342 21.4717 346.869 21.4741 347.908C21.4788 350.193 23.3317 352.041 25.6137 352.041H25.6231C27.9122 352.034 29.7604 350.176 29.7556 347.89C29.7556 347.741 29.7344 339.132 29.7321 330.789H49.1737C51.4627 330.789 53.3156 328.936 53.3156 326.649C53.3156 324.36 51.4627 322.507 49.1737 322.507H29.7321C29.7344 319.895 29.7439 317.729 29.7556 316.463C29.7698 314.919 29.8217 310.221 38.2023 310.221H51.6584C53.9474 310.221 55.8027 308.368 55.8027 306.079C55.8027 303.79 53.9474 301.937 51.6584 301.937Z" fill="#662D91"/>
<path d="M160.464 200.305C158.547 202.254 155.454 203.301 151.536 203.329L139.643 203.416C139.603 198.973 139.584 195.052 139.587 193.145C139.589 191.601 139.598 186.9 147.979 186.841L152.864 186.799H153C160.054 186.799 162.607 190.903 162.637 194.765C162.647 196.271 162.281 198.459 160.464 200.305ZM153 178.508H152.802L147.927 178.548C137.687 178.626 131.314 184.21 131.293 193.129C131.284 199.1 131.538 223.645 131.55 224.687C131.576 226.96 133.424 228.789 135.695 228.789H135.737C138.028 228.763 139.862 226.889 139.841 224.598C139.839 224.475 139.712 211.705 139.712 211.705L151.595 211.62C159.387 211.566 163.932 208.598 166.374 206.118C169.344 203.103 170.961 199.046 170.924 194.696C170.862 186.879 165.226 178.508 153 178.508Z" fill="#662D91"/>
<path d="M215.131 220.561H201.425C193.035 220.561 192.985 215.858 192.971 214.313C192.91 208.394 192.969 183.113 192.971 182.859C192.978 180.57 191.123 178.71 188.836 178.702H188.824C186.542 178.702 184.687 180.553 184.68 182.84C184.678 183.879 184.621 208.427 184.68 214.398C184.77 223.312 191.189 228.852 201.425 228.852H215.131C217.42 228.852 219.273 226.996 219.273 224.705C219.273 222.416 217.42 220.561 215.131 220.561Z" fill="#662D91"/>
<path d="M236.406 224.707V182.851C236.406 180.56 234.551 178.705 232.262 178.705C229.972 178.705 228.117 180.56 228.117 182.851V224.707C228.117 226.996 229.972 228.852 232.262 228.852C234.551 228.852 236.406 226.996 236.406 224.707Z" fill="#662D91"/>
<path d="M157.944 248.458C160.23 248.458 162.081 246.607 162.081 244.321C162.081 242.036 160.23 240.183 157.944 240.183H134.409C132.127 240.183 130.279 242.032 130.272 244.314C130.272 245.351 130.216 269.854 130.272 275.811C130.362 284.708 136.767 290.238 146.986 290.238H157.944C160.23 290.238 162.081 288.385 162.081 286.101C162.081 283.814 160.23 281.961 157.944 281.961H146.986C138.613 281.961 138.563 277.268 138.547 275.726C138.533 274.319 138.528 271.808 138.523 268.807H154.528C156.81 268.807 158.663 266.954 158.663 264.67C158.663 262.386 156.81 260.533 154.528 260.533H138.523C138.528 256.044 138.533 251.565 138.54 248.458H157.944Z" fill="#662D91"/>
<path d="M111.802 240.186C109.518 240.186 107.667 242.039 107.667 244.323V286.103C107.667 288.388 109.518 290.238 111.802 290.238C114.089 290.238 115.939 288.388 115.939 286.103V244.323C115.939 242.039 114.089 240.186 111.802 240.186Z" fill="#662D91"/>
<path d="M254.913 343.749H238.789C230.408 343.749 230.356 339.051 230.342 337.507C230.283 331.597 230.342 306.335 230.342 306.083C230.347 303.794 228.499 301.936 226.212 301.931H226.2C223.921 301.931 222.065 303.779 222.061 306.064C222.056 307.103 221.999 331.627 222.061 337.592C222.152 346.498 228.562 352.033 238.789 352.033H254.913C257.198 352.033 259.053 350.18 259.053 347.894C259.053 345.602 257.198 343.749 254.913 343.749Z" fill="#662D91"/>
<path d="M324.696 220.563H313.366V186.993H324.696C334.734 186.993 339.826 192.642 339.826 203.778C339.826 214.915 334.734 220.563 324.696 220.563ZM324.696 178.705H309.224C306.93 178.705 305.075 180.56 305.075 182.849V224.707C305.075 226.996 306.93 228.852 309.224 228.852H324.696C339.361 228.852 348.117 219.479 348.117 203.778C348.117 188.08 339.361 178.705 324.696 178.705Z" fill="#662D91"/>
<path d="M296.638 301.46H257.805C255.518 301.46 253.665 303.315 253.665 305.599C253.665 307.891 255.518 309.744 257.805 309.744H273.081V347.894C273.081 350.18 274.934 352.033 277.223 352.033C279.505 352.033 281.362 350.18 281.362 347.894V309.744H296.638C298.923 309.744 300.776 307.891 300.776 305.599C300.776 303.315 298.923 301.46 296.638 301.46Z" fill="#662D91"/>
<path d="M36.5667 204.455C39.1151 197.383 41.2815 191.435 41.8214 190.111C43.0355 187.14 44.2495 187.14 44.7729 187.14C45.5909 187.14 46.515 187.14 47.7267 190.111C48.2642 191.435 50.433 197.383 52.979 204.455H36.5667ZM64.8179 229.281C65.2847 229.281 65.7562 229.206 66.2253 229.038C68.3988 228.263 69.5351 225.868 68.7595 223.689C68.2786 222.339 56.9371 190.528 55.4779 186.947C53.2643 181.52 49.6621 178.767 44.7729 178.767C42.0218 178.767 36.9722 179.83 34.0679 186.947C32.611 190.528 21.2695 222.339 20.7838 223.689C20.0106 225.868 21.1445 228.263 23.3251 229.038C25.4987 229.816 27.8938 228.678 28.6694 226.502C30.006 222.758 31.7623 217.841 33.561 212.829H55.9871C57.7834 217.841 59.542 222.758 60.8763 226.502C61.4869 228.213 63.097 229.281 64.8179 229.281Z" fill="#662D91"/>
<path d="M85.2458 248.444C88.0912 248.444 90.6679 249.51 90.6679 249.51C92.773 250.415 95.2059 249.449 96.1111 247.348C97.0164 245.25 96.0451 242.815 93.9423 241.912C93.5298 241.735 89.7626 240.172 85.2458 240.172C70.6086 240.172 61.8721 249.526 61.8721 265.198C61.8721 280.866 70.6086 290.225 85.2458 290.225C89.7626 290.225 93.5298 288.659 93.947 288.478C96.038 287.58 96.9975 285.161 96.1064 283.065C95.2177 280.967 92.7942 279.991 90.6914 280.87C90.6914 280.87 88.0888 281.948 85.2458 281.948C75.2268 281.948 70.1489 276.314 70.1489 265.198C70.1489 254.081 75.2268 248.444 85.2458 248.444Z" fill="#662D91"/>
<path d="M249.765 248.444C252.608 248.444 255.187 249.515 255.187 249.515C257.287 250.42 259.727 249.451 260.63 247.35C261.533 245.252 260.562 242.817 258.464 241.914C258.049 241.735 254.284 240.172 249.765 240.172C235.13 240.172 226.394 249.526 226.394 265.198C226.394 280.868 235.13 290.225 249.765 290.225C254.284 290.225 258.049 288.659 258.466 288.478C260.557 287.58 261.519 285.161 260.628 283.065C259.734 280.969 257.311 279.991 255.211 280.873C255.211 280.873 252.608 281.948 249.765 281.948C239.746 281.948 234.666 276.314 234.666 265.198C234.666 254.083 239.746 248.444 249.765 248.444Z" fill="#662D91"/>
<path d="M142.238 310.213C146.396 310.213 150.347 312.45 150.347 312.45C152.351 313.617 154.883 312.954 156.038 310.977C157.193 309.001 156.526 306.467 154.553 305.312C153.961 304.965 148.577 301.929 142.238 301.929C127.589 301.929 118.843 311.292 118.843 326.981C118.843 342.67 127.589 352.033 142.238 352.033C148.525 352.033 153.942 349.002 154.536 348.66C156.512 347.514 157.179 344.994 156.045 343.016C154.914 341.038 152.382 340.352 150.399 341.481C150.399 341.481 146.366 343.752 142.238 343.752C132.209 343.752 127.124 338.108 127.124 326.981C127.124 315.856 132.209 310.213 142.238 310.213Z" fill="#662D91"/>
<path d="M210.908 240.186C208.621 240.186 206.769 242.039 206.769 244.323V262.591L207.061 275.064L206.08 273.47C203.013 269.203 188.746 249.351 183.529 242.053C182.937 241.223 181.492 240.186 179.906 240.186C177.619 240.186 175.769 242.039 175.769 244.323V286.103C175.769 288.388 177.619 290.238 179.906 290.238C182.185 290.238 184.041 288.388 184.041 286.103V266.692L183.777 255.401L184.76 256.999C187.902 261.367 202.143 281.191 207.28 288.374C207.874 289.203 209.373 290.238 210.908 290.238C213.192 290.238 215.045 288.388 215.045 286.103V244.323C215.045 242.039 213.192 240.186 210.908 240.186Z" fill="#662D91"/>
<path d="M77.0848 327.41C79.6331 320.345 81.7973 314.402 82.3371 313.077C83.5465 310.109 84.7629 310.109 85.2839 310.109C86.0995 310.109 87.0236 310.109 88.2353 313.077C88.7728 314.402 90.9393 320.345 93.4829 327.41H77.0848ZM95.9794 309.916C93.7658 304.494 90.1684 301.742 85.2839 301.742C82.5351 301.742 77.4879 302.803 74.5859 309.918C73.1314 313.494 61.8017 345.277 61.3208 346.625C60.5428 348.806 61.6744 351.196 63.8503 351.972C66.0262 352.75 68.4213 351.613 69.1969 349.438C70.5312 345.696 72.2827 340.786 74.0814 335.779H96.4886C98.2826 340.786 100.039 345.696 101.373 349.438C101.984 351.149 103.594 352.215 105.312 352.215C105.779 352.215 106.251 352.137 106.717 351.972C108.891 351.196 110.027 348.806 109.252 346.625C108.771 345.277 97.441 313.494 95.9794 309.916Z" fill="#662D91"/>
<path d="M301.03 248.46C303.317 248.46 305.167 246.607 305.167 244.323C305.167 242.036 303.317 240.183 301.03 240.183H277.494C275.219 240.183 273.366 242.032 273.359 244.311C273.356 245.351 273.298 269.854 273.359 275.811C273.451 284.708 279.856 290.238 290.073 290.238H301.03C303.317 290.238 305.167 288.385 305.167 286.101C305.167 283.817 303.317 281.964 301.03 281.964H290.073C281.697 281.964 281.65 277.268 281.633 275.728C281.622 274.319 281.607 268.809 281.607 268.809H297.612C299.899 268.809 301.749 266.957 301.749 264.67C301.749 262.386 299.899 260.533 297.612 260.533H281.607L281.626 248.46H301.03Z" fill="#662D91"/>
<path d="M330.396 282.716C326.207 282.716 322.664 281.217 320.689 278.607C319.828 277.475 318.64 276.853 317.341 276.853C315.222 276.853 312.949 278.48 312.949 280.894C312.949 284.291 318.756 290.352 330.328 290.352C341.882 290.352 348.119 283.013 348.119 276.11C348.119 270.736 344.569 265.969 338.138 262.68C336.5 261.855 334.439 260.912 332.445 259.998L332.12 259.849C330.361 259.04 328.697 258.281 327.407 257.64C324.642 256.299 322.921 254.288 322.921 252.397C322.921 249.931 325.561 247.383 329.984 247.383C333.214 247.383 335.774 248.328 337.591 250.188C338.605 251.256 339.859 251.848 341.116 251.848C343.421 251.848 345.368 249.964 345.368 247.744C345.368 244.552 340.045 240.136 330.055 240.136C320.043 240.136 314.809 246.431 314.809 252.652C314.809 257.685 318.185 262.112 323.852 264.5C327.388 265.99 330.915 267.791 334.197 269.522C337.544 271.259 339.628 273.876 339.628 276.351C339.628 278.006 337.933 282.716 330.396 282.716Z" fill="#662D91"/>
<path d="M37.2773 282.716C33.0834 282.716 29.5426 281.217 27.5647 278.605C26.7043 277.478 25.5162 276.851 24.2243 276.851C22.1003 276.851 19.8301 278.477 19.8301 280.896C19.8301 284.291 25.6387 290.352 37.2042 290.352C48.7626 290.352 54.9956 283.013 54.9956 276.11C54.9956 270.738 51.45 265.967 45.0143 262.68C43.258 261.794 40.9666 260.752 39.1279 259.908L39.0194 259.856C37.249 259.05 35.5847 258.284 34.2881 257.638C31.5228 256.299 29.8043 254.288 29.8043 252.397C29.8043 249.934 32.4446 247.383 36.8647 247.383C40.0944 247.383 42.6545 248.328 44.465 250.188C45.4834 251.256 46.7376 251.846 47.9917 251.846C50.2973 251.846 52.2468 249.967 52.2468 247.744C52.2468 244.552 46.9238 240.136 36.9331 240.136C26.9235 240.136 21.6854 246.431 21.6854 252.652C21.6854 257.683 25.0659 262.11 30.7308 264.5C34.2551 265.983 37.7841 267.789 41.0751 269.522C44.425 271.259 46.5089 273.876 46.5089 276.351C46.5089 278.003 44.8139 282.716 37.2773 282.716Z" fill="#662D91"/>
<path d="M364.139 321.739C355.285 321.739 348.111 328.915 348.111 337.767C348.111 346.619 355.285 353.795 364.139 353.795C372.991 353.795 380.17 346.619 380.17 337.767C380.17 328.915 372.991 321.739 364.139 321.739Z" fill="#8AC650"/>
</svg>
