<svg width="400" height="400" viewBox="0 0 400 400" fill="none" xmlns="http://www.w3.org/2000/svg">
<path d="M196.797 105.369C198.995 105.369 201.196 105.369 203.395 105.369C203.395 105.369 202.158 102.742 201.959 95.8619C208.865 96.0534 211.501 97.263 211.501 97.263C211.501 95.0662 211.501 92.8667 211.501 90.6671C211.501 90.6671 208.863 91.9074 201.959 92.1032C202.156 85.1969 203.395 82.5625 203.395 82.5625C201.197 82.5625 198.996 82.5625 196.797 82.5625C196.797 82.5625 198.009 85.1969 198.201 92.1018C191.318 91.9018 188.693 90.6671 188.693 90.6671C188.693 92.8667 188.693 95.0662 188.693 97.263C188.693 97.263 191.318 96.0576 198.201 95.8633C198.005 102.742 196.797 105.369 196.797 105.369Z" fill="white"/>
<path d="M282.883 138.113C282.906 158.271 282.851 173.6 282.869 193.757C282.895 217.616 282.869 266.43 282.864 276.456C273.431 274.034 263.605 271.942 253.996 271.649C235.571 271.084 214.783 276.287 200.352 288.779C200.297 288.826 200.246 288.874 200.194 288.923C186.703 277.12 167.749 271.952 150.468 271.731C139.454 271.589 128.21 273.743 117.365 276.171C117.348 256.499 117.33 235.966 117.313 216.344C117.29 190.134 117.367 139.592 117.367 138.117C117.365 136.813 112.219 134.884 112.219 136.186C112.238 156.352 112.254 173.62 112.273 193.786C112.296 219.995 112.219 276.332 112.219 277.808C112.219 278.983 115.51 278.735 116.121 278.588C126.059 276.199 136.489 275.179 146.682 274.999C164.524 274.679 184.524 278.574 197.772 291.645C198.777 292.637 201.606 292.637 202.612 291.645C216.048 278.386 235.882 274.421 253.994 274.905C264.069 275.175 274.433 276.427 284.195 279.032C284.805 279.195 287.972 279.416 287.972 278.253C287.95 258.095 287.931 236.972 287.912 216.814C287.884 190.507 287.972 137.72 287.972 136.184C287.971 134.878 282.883 136.812 282.883 138.113Z" fill="white"/>
<path d="M138.832 120.294C148.242 113.153 155.041 105.248 166.93 105.248C173.004 105.248 177.065 111.441 177.065 115.225C177.065 117.861 176.357 123.17 170.48 123.17C165.34 123.17 163.852 116.915 165.941 113.457C158.359 113.457 157.952 125.198 170.574 125.198C175.978 125.198 181.548 122.06 181.548 115.544C181.548 111.16 178.436 103.51 166.909 103.51C154.269 103.51 146.194 109.962 135.985 117.61C125.446 125.507 115.922 127.657 102.936 126.329V128.257C102.947 128.259 102.955 128.26 102.965 128.261C102.962 149.779 102.954 263.489 102.954 264.295C102.954 265.597 107.974 267.529 107.974 266.226C107.976 246.761 107.982 140.252 107.985 128.856C119.157 129.69 129.841 127.116 138.832 120.294Z" fill="white"/>
<path d="M297.063 126.329C284.077 127.656 274.556 125.507 264.017 117.61C253.808 109.962 245.73 103.51 233.09 103.51C221.565 103.51 218.454 111.161 218.454 115.544C218.454 122.06 224.019 125.198 229.425 125.198C242.045 125.198 241.638 113.457 234.058 113.457C236.15 116.917 234.662 123.17 229.519 123.17C223.645 123.17 222.937 117.861 222.937 115.225C222.937 111.441 226.998 105.248 233.069 105.248C244.961 105.248 251.755 113.151 261.17 120.294C270.158 127.116 280.841 129.69 292.018 128.854C292.018 140.25 292.027 246.76 292.027 266.224C292.027 267.528 297.047 265.595 297.047 264.293C297.047 263.488 297.038 149.777 297.038 128.26C297.047 128.258 297.058 128.257 297.066 128.256V126.329H297.063Z" fill="white"/>
<path d="M179.411 190.182C176.302 184.341 165.39 161.939 160.728 152.431C157.593 146.036 153.318 143.606 150.074 142.838C147.845 142.31 136.818 142.847 134.206 142.855V143.031C137.555 144.446 144.226 151.85 146.813 157.445C148.553 161.209 158.994 182.612 162.616 189.472C166.221 196.296 174.141 198.778 177.501 199.19C179.045 199.382 180.65 199.376 182.248 199.34C165.963 220.828 150.961 240.681 152.668 238.326C147.336 244.883 142.255 247.517 137.278 249.026L137.303 249.96C150.315 249.96 159.565 240.377 161.175 238.286C164.007 234.602 178.419 215.317 193.34 195.571V242.211H206.211V181.009C208.962 183.22 212.173 186.692 214.492 190.86C215.738 193.098 222.025 207.844 226.168 213.563C229.647 218.368 235.033 219.123 240.102 219.131C230.675 231.561 221.009 244.284 214.313 253.011C212.015 256.004 209.7 258.901 207.13 261.594C206.109 262.667 200.745 268.752 195.908 268.752C190.599 268.752 187.198 264.6 187.198 260.487C187.198 256.023 189.613 251.377 194.861 250.209C199.844 249.102 203.947 251.753 204.715 252.543C204.715 252.543 209.752 251.126 209.754 251.082C206.886 248.52 199.115 247.017 194.539 247.796C187.46 249.002 181.226 253.729 181.226 260.909C181.226 265.74 186.092 270.924 195.826 270.924C207.531 270.924 215.29 261.997 217.869 259.199C219.124 257.835 248.088 219.365 264.666 197.618H264.638C265.034 197.088 265.365 196.644 265.613 196.304C267.965 193.096 276.305 182.897 272.452 178.422L262.779 178.414V178.955C267.705 181.791 260.329 192.531 256.492 197.62H256.423C252.311 203.038 247.601 209.244 242.755 215.637C241.654 214.544 240.933 213.194 240.179 211.768C237.884 207.418 231.414 194.742 228.064 187.781C225.841 183.163 221.507 178.66 217.121 178.431C213.51 178.242 209.842 178.576 206.212 178.613V178.606C213.01 169.69 219.199 161.659 223.577 156.163C225.929 153.212 228.19 150.273 230.76 147.578C231.781 146.507 237.145 140.42 241.981 140.42C247.291 140.42 250.692 144.572 250.692 148.686C250.692 153.151 248.277 157.797 243.029 158.963C238.045 160.072 233.942 157.42 233.175 156.631C233.175 156.631 228.138 158.046 228.135 158.092C231.003 160.653 238.775 162.157 243.35 161.378C250.43 160.172 256.664 155.445 256.664 148.265C256.664 143.434 251.798 138.25 242.064 138.25C230.359 138.25 222.599 147.177 220.021 149.975C219.124 150.948 213.665 158.031 206.212 167.799V115.135H193.341V184.718C190.515 188.443 187.616 192.263 184.736 196.062C182.581 194.647 180.767 192.734 179.411 190.182Z" fill="white"/>
<path d="M90.8361 280.645L95.6184 286.158L94.8451 286.828C94.4746 286.544 94.1166 286.397 93.767 286.385C93.4174 286.372 92.9993 286.576 92.5141 286.997L86.4049 292.294C84.3465 294.078 83.3062 295.65 83.2852 297.01C83.2628 298.371 83.8753 299.771 85.124 301.211C86.4916 302.785 87.8451 303.641 89.1889 303.777C90.5327 303.912 91.9198 303.362 93.3489 302.121L100.466 295.952C100.865 295.605 101.076 295.247 101.091 294.877C101.11 294.507 100.966 294.06 100.661 293.536L101.433 292.866L104.671 296.602L103.899 297.272C103.45 296.899 103.035 296.7 102.652 296.678C102.269 296.655 101.884 296.81 101.498 297.145L94.4676 303.24C93.3265 304.203 92.2722 304.849 91.3018 305.177C90.3355 305.504 89.3595 305.579 88.3821 305.402C87.3208 305.218 86.307 304.835 85.3393 304.254C84.3717 303.672 83.4852 302.931 82.6783 302.028C81.6254 300.812 80.8424 299.599 80.3292 298.386C79.816 297.174 79.6007 295.981 79.6832 294.805C79.7307 293.791 80.0006 292.883 80.49 292.076C80.9808 291.27 81.6464 290.503 82.491 289.771L89.586 283.62C90.0573 283.212 90.3174 282.833 90.3691 282.488C90.4208 282.142 90.3174 281.751 90.0643 281.313L90.8361 280.645Z" fill="white"/>
<path d="M111.582 302.926L116.111 306.269L117.508 322.989L117.771 323.183L123.634 315.239C123.937 314.828 124.053 314.427 123.985 314.035C123.915 313.644 123.669 313.233 123.247 312.803L123.853 311.983L127.953 315.007L127.346 315.829C126.822 315.537 126.356 315.423 125.951 315.487C125.545 315.551 125.197 315.782 124.905 316.178L114.748 329.943L113.476 329.006L111.797 308.657L111.558 308.481L104.062 318.639C103.769 319.034 103.648 319.433 103.698 319.834C103.747 320.235 103.997 320.649 104.448 321.074L103.841 321.897L99.7422 318.872L100.349 318.051C100.873 318.344 101.338 318.458 101.745 318.393C102.149 318.328 102.498 318.097 102.791 317.702L111.315 306.152C111.668 305.637 111.817 305.184 111.762 304.791C111.708 304.397 111.445 304.051 110.975 303.751L111.582 302.926Z" fill="white"/>
<path d="M136.559 319.602L143.204 322.899L142.751 323.813C142.29 323.669 141.883 323.662 141.53 323.794C141.177 323.924 140.869 324.273 140.61 324.842L134.353 337.445C134.049 338.013 133.953 338.477 134.062 338.837C134.171 339.198 134.427 339.509 134.828 339.771L134.375 340.685L127.73 337.388L128.185 336.474C128.611 336.643 129.007 336.66 129.375 336.525C129.741 336.391 130.066 336.035 130.352 335.46L136.61 322.855C136.87 322.288 136.945 321.819 136.842 321.45C136.736 321.081 136.491 320.769 136.108 320.516L136.559 319.602Z" fill="white"/>
<path d="M151.187 326.734L159.451 329.144L159.149 330.178C158.583 329.994 158.096 329.956 157.693 330.064C157.289 330.173 157.028 330.427 156.912 330.826C156.864 330.989 156.839 331.184 156.833 331.409C156.831 331.634 156.86 331.855 156.922 332.069L159.301 344.022L159.731 344.146L167.759 335.021C167.947 334.8 168.079 334.632 168.154 334.516C168.228 334.4 168.286 334.28 168.322 334.151C168.427 333.789 168.339 333.438 168.056 333.098C167.771 332.76 167.333 332.504 166.743 332.332L167.03 331.352L172.777 333.028L172.492 334.008C171.888 333.95 171.365 334.039 170.924 334.275C170.484 334.512 170.018 334.902 169.527 335.449L157.354 349.216L156.267 348.899L152.651 330.439C152.471 329.637 152.251 329.042 151.992 328.651C151.732 328.261 151.37 327.948 150.9 327.713L151.187 326.734Z" fill="white"/>
<path d="M181.182 334.309L195.893 335.314C196.349 335.345 196.669 335.334 196.851 335.28C197.034 335.226 197.181 335.1 197.295 334.899L198.037 334.95L197.692 340.017L196.622 339.944C196.377 338.846 195.945 338.035 195.324 337.509C194.703 336.984 193.609 336.668 192.044 336.56L187.081 336.22L186.593 343.353L189.892 343.578C190.783 343.658 191.438 343.568 191.865 343.307C192.291 343.047 192.526 342.601 192.57 341.969L193.639 342.041L193.291 347.137L192.221 347.064C192.202 346.466 192.028 346.001 191.704 345.671C191.38 345.341 190.938 345.157 190.384 345.118L186.491 344.852L185.933 353.032L193.066 353.52C194.155 353.594 195.144 353.335 196.029 352.741C196.917 352.148 197.494 351.34 197.763 350.315L198.834 350.389L198.491 355.399L179.828 354.124L179.897 353.105C180.394 353.101 180.783 352.961 181.06 352.687C181.338 352.413 181.508 351.964 181.57 351.343L182.53 337.304C182.553 336.68 182.444 336.223 182.207 335.932C181.969 335.641 181.601 335.44 181.113 335.331L181.182 334.309Z" fill="white"/>
<path d="M209.307 335.259L217.982 334.063C220.184 333.76 221.9 333.771 223.129 334.097C224.357 334.424 225.327 335.073 226.043 336.043C226.27 336.375 226.457 336.721 226.607 337.082C226.756 337.443 226.858 337.811 226.91 338.187C227.075 339.385 226.863 340.461 226.272 341.41C225.681 342.361 224.834 343.112 223.727 343.665L223.736 343.951L228.883 350.085C229.223 350.516 229.571 350.821 229.926 351.001C230.281 351.18 230.7 351.267 231.179 351.258L231.319 352.269L225.653 353.051L219.602 345.809C219.292 345.451 218.976 345.19 218.652 345.023C218.327 344.857 217.852 344.819 217.223 344.906L216.663 344.983L217.527 351.25C217.62 351.924 217.785 352.35 218.02 352.528C218.254 352.706 218.657 352.831 219.229 352.906L219.369 353.916L212.021 354.93L211.881 353.918C212.465 353.647 212.83 353.387 212.976 353.136C213.121 352.886 213.163 352.462 213.1 351.858L211.178 337.918C211.098 337.338 210.95 336.948 210.732 336.749C210.513 336.551 210.086 336.39 209.448 336.268L209.307 335.259ZM215.413 335.934L216.455 343.495L219.052 343.137C220.114 342.991 220.914 342.541 221.452 341.789C221.989 341.037 222.182 340.108 222.03 339.003C221.831 337.713 221.349 336.791 220.581 336.239C219.814 335.687 218.689 335.502 217.213 335.687L215.413 335.934Z" fill="white"/>
<path d="M250.026 326.316L251.54 330.686L250.444 331.066C249.721 330.016 248.826 329.312 247.755 328.951C246.684 328.591 245.53 328.626 244.291 329.056C243.315 329.394 242.63 329.921 242.239 330.637C241.846 331.355 241.804 332.038 242.116 332.691C242.376 333.322 242.853 333.772 243.545 334.042C244.237 334.312 245.171 334.445 246.346 334.436C249.732 334.443 252.021 334.771 253.213 335.418C254.404 336.065 255.228 337.051 255.688 338.373C256.307 340.16 256.134 341.857 255.168 343.463C254.201 345.069 252.742 346.21 250.789 346.887C250.357 347.037 249.936 347.153 249.524 347.237C249.111 347.32 248.108 347.427 246.515 347.56C245.99 347.621 245.582 347.733 245.291 347.894C245 348.055 244.842 348.28 244.816 348.569C244.803 348.594 244.798 348.61 244.802 348.619C244.805 348.628 244.809 348.642 244.816 348.66L243.943 348.962L242.007 344.378L243.104 343.998C243.939 344.83 244.995 345.403 246.272 345.722C247.548 346.041 248.759 346 249.904 345.603C250.711 345.324 251.402 344.908 251.979 344.359C252.556 343.809 252.936 343.193 253.118 342.507C253.181 342.266 253.197 341.996 253.167 341.695C253.137 341.396 253.072 341.073 252.972 340.726C252.884 340.476 252.716 340.234 252.469 340C252.219 339.767 251.908 339.564 251.533 339.393C251.171 339.259 250.739 339.163 250.236 339.107C249.732 339.051 248.92 339.007 247.794 338.978C245.377 338.975 243.553 338.672 242.324 338.068C241.095 337.464 240.242 336.472 239.765 335.096C239.258 333.631 239.355 332.175 240.063 330.728C240.771 329.282 241.977 328.263 243.686 327.67C244.248 327.474 244.809 327.351 245.368 327.297C245.928 327.243 246.548 327.259 247.228 327.343C247.853 327.446 248.302 327.436 248.573 327.312C248.846 327.188 249.011 326.965 249.068 326.645L250.026 326.316Z" fill="white"/>
<path d="M260.271 321.105L266.809 317.605L267.291 318.506C266.908 318.797 266.666 319.125 266.567 319.489C266.469 319.853 266.576 320.304 266.887 320.847L273.528 333.253C273.815 333.829 274.136 334.177 274.493 334.297C274.849 334.417 275.252 334.389 275.698 334.215L276.181 335.115L269.641 338.615L269.158 337.715C269.543 337.466 269.786 337.152 269.89 336.776C269.992 336.4 269.891 335.929 269.588 335.361L262.946 322.955C262.634 322.414 262.297 322.08 261.935 321.951C261.574 321.823 261.178 321.842 260.749 322.007L260.271 321.105Z" fill="white"/>
<path d="M274.251 312.788L275.195 312.059C275.491 312.022 275.771 311.936 276.034 311.805C276.297 311.673 276.6 311.475 276.946 311.208L287.696 302.903C288.006 302.688 288.258 302.463 288.454 302.228C288.649 301.994 288.827 301.72 288.985 301.406L289.905 300.695L293.026 304.736L292.177 305.392C291.122 304.869 290.126 304.629 289.192 304.669C288.257 304.71 287.381 305.047 286.563 305.678L285.008 306.879L294.686 319.406C294.959 319.792 295.259 320.009 295.585 320.056C295.911 320.104 296.333 320.01 296.853 319.774L297.478 320.582L291.608 325.117L290.985 324.309C291.352 323.809 291.543 323.417 291.561 323.128C291.578 322.842 291.44 322.51 291.151 322.137L281.473 309.61L280.153 310.629C279.163 311.394 278.509 312.229 278.191 313.131C277.871 314.034 277.884 315.048 278.224 316.17L277.375 316.826L274.251 312.788Z" fill="white"/>
<path d="M295.822 295.84L301.648 289.023L302.425 289.688C302.133 290.117 301.972 290.45 301.944 290.687C301.915 290.924 301.979 291.11 302.138 291.245C302.253 291.345 302.393 291.423 302.552 291.482C302.713 291.54 302.889 291.561 303.081 291.54L310.144 291.659L310.472 291.275L308.694 284.974C308.593 284.626 308.526 284.413 308.494 284.334C308.463 284.254 308.424 284.196 308.382 284.159C308.151 283.962 307.898 283.915 307.623 284.019C307.347 284.124 306.996 284.398 306.567 284.84L305.789 284.175L309.408 279.941L310.186 280.606C309.977 281.054 309.849 281.467 309.8 281.843C309.752 282.221 309.78 282.636 309.888 283.095L312.047 292.62L317.352 297.153C317.755 297.497 318.092 297.655 318.366 297.627C318.64 297.599 319.027 297.422 319.531 297.095L320.307 297.759L315.431 303.465L314.653 302.801C314.934 302.414 315.051 302.017 315.002 301.608C314.951 301.2 314.768 300.848 314.449 300.55L309.122 295.998L299.403 295.842C298.662 295.836 298.089 295.881 297.683 295.979C297.277 296.075 296.923 296.243 296.619 296.481L295.822 295.84Z" fill="white"/>
<path d="M53.8118 250.017L52.0346 243.01L53.0246 242.758C53.2273 243.173 53.4804 243.464 53.7867 243.631C54.0929 243.797 54.5571 243.801 55.1794 243.642L63.017 241.653C65.657 240.984 67.293 240.051 67.9264 238.855C68.5585 237.66 68.6438 236.147 68.1795 234.317C67.6719 232.314 66.8497 230.955 65.7101 230.239C64.5733 229.523 63.0883 229.397 61.2523 229.863L52.1255 232.18C51.6123 232.31 51.2641 232.535 51.0823 232.855C50.8991 233.176 50.825 233.636 50.8614 234.235L49.8714 234.487L48.666 229.74L49.6574 229.488C49.8895 230.018 50.1706 230.377 50.502 230.566C50.8334 230.756 51.2459 230.789 51.7423 230.663L60.7601 228.374C62.2129 228.026 63.4462 227.921 64.4572 228.059C65.4696 228.199 66.3701 228.562 67.1658 229.153C68.0285 229.786 68.7612 230.575 69.3597 231.517C69.9582 232.46 70.4182 233.511 70.7301 234.669C71.1216 236.213 71.2726 237.636 71.1845 238.937C71.095 240.238 70.7468 241.391 70.1442 242.397C69.6464 243.274 68.9962 243.962 68.1935 244.46C67.3937 244.958 66.454 245.344 65.3703 245.618L56.2687 247.928C55.6632 248.08 55.2605 248.301 55.0591 248.585C54.8592 248.869 54.7739 249.262 54.8018 249.761L53.8118 250.017Z" fill="white"/>
<path d="M46.8659 216.633L46.6058 209.292L47.6266 209.256C47.7175 209.724 47.9063 210.082 48.1887 210.328C48.4712 210.574 48.9243 210.677 49.5479 210.635L55.8417 210.412L55.8347 210.207L49.471 202.814C49.2151 202.527 48.9802 202.299 48.7648 202.13C48.5523 201.959 48.3593 201.878 48.1887 201.884C47.9832 201.912 47.8112 202.045 47.6784 202.287C47.5455 202.529 47.4574 202.856 47.4155 203.27L46.3947 203.306L46.1416 196.141L47.161 196.105C47.4644 197.177 47.7217 197.921 47.937 198.336C48.1496 198.752 48.4334 199.171 48.7886 199.591L53.6715 205.234L62.1593 198.824C63.1018 198.142 63.752 197.553 64.1128 197.058C64.4749 196.563 64.756 195.958 64.9574 195.243L65.9767 195.207L66.3039 204.496L65.2832 204.531C65.2818 203.921 65.0958 203.481 64.7266 203.207C64.3575 202.936 63.9058 202.996 63.3703 203.387L56.4808 208.551L57.9937 210.337L63.6094 210.14C64.2512 210.137 64.7071 210.003 64.9714 209.737C65.237 209.473 65.3894 209.102 65.4286 208.629L66.4494 208.593L66.7081 215.936L65.6887 215.971C65.6342 215.52 65.4622 215.167 65.1685 214.912C64.8749 214.658 64.4078 214.54 63.766 214.562L49.7017 215.057C49.0795 215.099 48.6292 215.253 48.3551 215.519C48.0811 215.785 47.9231 216.144 47.8825 216.598L46.8659 216.633Z" fill="white"/>
<path d="M47.0928 183.717L48.54 175.164C48.9078 172.993 49.4308 171.376 50.1089 170.312C50.7871 169.251 51.6974 168.527 52.8357 168.141C53.2202 168.026 53.6061 167.952 53.9963 167.918C54.385 167.885 54.7667 167.899 55.1387 167.962C56.3329 168.165 57.2949 168.686 58.0234 169.528C58.7533 170.37 59.2176 171.396 59.4161 172.607L59.6902 172.684L67.0789 169.655C67.5921 169.462 67.985 169.224 68.2647 168.943C68.5444 168.662 68.7485 168.292 68.8842 167.836L69.8909 168.007L68.9443 173.593L60.23 177.145C59.7951 177.33 59.4511 177.551 59.198 177.807C58.9449 178.063 58.7631 178.502 58.6583 179.122L58.5646 179.675L64.8025 180.731C65.4737 180.846 65.9309 180.818 66.17 180.649C66.4091 180.479 66.6496 180.137 66.8916 179.618L67.8983 179.789L66.672 187.032L65.6652 186.861C65.5799 186.229 65.4401 185.806 65.2457 185.593C65.0514 185.381 64.6584 185.214 64.0642 185.094L50.1914 182.745C49.6125 182.647 49.1958 182.672 48.94 182.817C48.6855 182.964 48.4044 183.321 48.0968 183.887L47.0928 183.717ZM49.558 178.15L57.0824 179.424L57.5172 176.863C57.6948 175.816 57.5046 174.927 56.9481 174.193C56.393 173.461 55.5624 173 54.4619 172.815C53.1727 172.617 52.1491 172.797 51.3926 173.358C50.6361 173.919 50.1257 174.924 49.86 176.375L49.558 178.15Z" fill="white"/>
<path d="M70.7132 160.832C70.7594 160.405 70.6699 159.954 70.4419 159.471C70.214 158.992 69.891 158.509 69.4715 158.027L60.3838 148.043C60.1979 147.843 59.9867 147.669 59.749 147.524C59.5127 147.379 59.2302 147.23 58.903 147.079C58.6933 146.995 58.4947 147.061 58.3087 147.274C58.1242 147.486 57.9773 147.783 57.8683 148.163L56.9174 147.788C57.1607 147.018 57.2768 146.298 57.2656 145.626C57.2558 144.957 57.1188 144.337 56.8545 143.768L57.2418 142.78L74.5404 141.283C75.6717 141.199 76.582 141.068 77.2741 140.885C77.9649 140.703 78.5102 140.416 78.9088 140.023L79.8596 140.398L76.7679 148.25L75.8171 147.875C76.0073 147.443 76.01 147.026 75.8213 146.623C75.6339 146.222 75.3291 145.938 74.9068 145.772C74.8369 145.744 74.697 145.726 74.4859 145.717C74.2747 145.709 74.1111 145.702 73.9909 145.696L71.9395 145.871L68.4913 154.629L69.768 155.956C70.3972 156.627 70.9565 156.9 71.4417 156.774C71.927 156.648 72.3926 156.208 72.8317 155.45L73.7825 155.824L71.6627 161.205L70.7132 160.832ZM61.4522 146.878L67.3097 153.212L67.416 153.254L70.2266 146.117L70.1469 146.087L61.4941 146.77L61.4522 146.878Z" fill="white"/>
<path d="M67.0996 123.011L70.9072 116.727L71.7812 117.257C71.6008 117.698 71.563 118.101 71.6637 118.462C71.7658 118.823 72.0902 119.157 72.6328 119.463L84.6653 126.755C85.2064 127.105 85.6595 127.242 86.0258 127.165C86.395 127.088 86.7236 126.863 87.0172 126.488L87.8912 127.017L84.0836 133.301L83.2096 132.772C83.4124 132.365 83.4613 131.975 83.3551 131.602C83.2516 131.227 82.923 130.873 82.3734 130.541L70.3395 123.248C69.7956 122.942 69.3355 122.825 68.9608 122.896C68.586 122.967 68.2574 123.183 67.975 123.539L67.0996 123.011Z" fill="white"/>
<path d="M78.0537 106.004L81.7103 101.794L98.4188 101.808L98.6314 101.563L91.1783 95.0889C90.7938 94.7547 90.4023 94.6051 90.0093 94.64C89.615 94.675 89.1885 94.8847 88.7299 95.2679L87.958 94.5981L91.2664 90.7891L92.0383 91.4588C91.7083 91.9539 91.5601 92.4055 91.595 92.8138C91.63 93.2221 91.8327 93.5857 92.2033 93.9087L105.12 105.126L104.095 106.306L83.7602 106.27L83.5659 106.494L93.0968 114.772C93.4688 115.095 93.8547 115.248 94.256 115.232C94.6573 115.216 95.088 115.002 95.5453 114.591L96.3157 115.261L93.0087 119.07L92.2368 118.4C92.5654 117.905 92.7151 117.453 92.6801 117.047C92.6452 116.64 92.4424 116.275 92.0704 115.952L81.2335 106.54C80.7483 106.145 80.3092 105.959 79.9149 105.98C79.5205 106.003 79.1556 106.235 78.8242 106.675L78.0537 106.004Z" fill="white"/>
<path d="M100.837 82.2677L106.527 77.6211L107.173 78.4125C106.855 78.7691 106.683 79.1355 106.66 79.5088C106.634 79.8836 106.827 80.3059 107.238 80.7771L116.139 91.6755C116.529 92.1859 116.912 92.467 117.283 92.5173C117.654 92.5691 118.039 92.4656 118.44 92.2111L119.088 93.0025L113.398 97.6491L112.752 96.8577C113.078 96.5417 113.254 96.1907 113.281 95.8034C113.307 95.416 113.117 94.9728 112.71 94.475L103.81 83.5765C103.4 83.1067 103.006 82.841 102.628 82.7837C102.251 82.7263 101.869 82.8172 101.483 83.0605L100.837 82.2677Z" fill="white"/>
<path d="M125.017 86.9355C125.322 86.6335 125.538 86.2252 125.665 85.7092C125.791 85.1932 125.845 84.6143 125.823 83.9753L125.069 70.4956C125.052 70.2229 124.998 69.9558 124.906 69.6929C124.815 69.4301 124.689 69.1378 124.528 68.8148C124.418 68.6162 124.222 68.5421 123.945 68.5897C123.668 68.6372 123.367 68.7742 123.042 68.9994L122.541 68.11C123.215 67.6654 123.76 67.1788 124.176 66.653C124.59 66.1272 124.873 65.5595 125.027 64.9513L125.953 64.4297L140.318 74.1815C141.246 74.8303 142.036 75.303 142.688 75.5966C143.341 75.8917 143.944 76.0133 144.502 75.9588L145.002 76.8495L137.65 80.9899L137.149 80.1006C137.57 79.8852 137.834 79.5636 137.941 79.1329C138.05 78.7037 137.992 78.2898 137.769 77.8954C137.732 77.8297 137.634 77.7262 137.476 77.5878C137.32 77.448 137.195 77.3389 137.104 77.2592L135.403 76.1014L127.203 80.72L127.355 82.5546C127.421 83.4733 127.681 84.0368 128.14 84.2466C128.599 84.4563 129.233 84.406 130.053 84.097L130.555 84.9863L125.515 87.8249L125.017 86.9355ZM126.635 70.2662L127.185 78.8785L127.242 78.9777L133.925 75.2135L133.884 75.1394L126.739 70.2103L126.635 70.2662Z" fill="white"/>
<path d="M146.502 54.8787L151.838 53.2636L165.971 62.1779L166.283 62.0842L163.423 52.6358C163.276 52.1464 163.024 51.8122 162.672 51.6332C162.32 51.4542 161.847 51.4039 161.254 51.4836L160.959 50.5062L165.788 49.0449L166.084 50.0223C165.541 50.2656 165.176 50.5691 164.988 50.9312C164.799 51.2948 164.778 51.7115 164.919 52.1827L169.873 68.557L168.377 69.01L151.188 58.1451L150.905 58.2318L154.56 70.3147C154.703 70.7859 154.948 71.1215 155.297 71.3214C155.644 71.5228 156.122 71.5717 156.728 71.4669L157.023 72.4443L152.195 73.9041L151.898 72.9267C152.441 72.6834 152.806 72.38 152.994 72.0164C153.183 71.6542 153.204 71.2361 153.063 70.7649L148.906 57.0251C148.706 56.4336 148.433 56.0421 148.088 55.8505C147.742 55.6589 147.31 55.6603 146.794 55.8561L146.502 54.8787Z" fill="white"/>
<path d="M247.531 69.24L248.089 70.5628C246.305 71.3109 244.721 71.7499 243.338 71.8786C241.953 72.0058 240.612 71.8772 239.312 71.4871C236.371 70.6075 234.272 68.9463 233.011 66.5049C231.751 64.0648 231.544 61.4304 232.392 58.6044C233.243 55.7602 234.836 53.7005 237.168 52.4253C239.502 51.15 242.005 50.9123 244.682 51.7135C245.246 51.8827 245.764 52.0729 246.235 52.2826C246.706 52.4924 247.193 52.7525 247.696 53.0615C248.124 53.3481 248.467 53.5579 248.723 53.6949C248.98 53.8306 249.223 53.9242 249.454 53.9732C249.524 54.0137 249.618 54.0277 249.735 54.0123C249.853 53.997 250.002 53.9592 250.185 53.8963C250.227 53.8893 250.273 53.8739 250.324 53.8487C250.371 53.8236 250.42 53.7984 250.469 53.7746L251.487 54.0795L250.145 58.5638L249.127 58.259C249.037 57.1851 248.579 56.1797 247.752 55.2415C246.926 54.3032 245.908 53.6516 244.701 53.2908C244.268 53.1608 243.815 53.095 243.343 53.0922C242.872 53.0895 242.377 53.1678 241.857 53.3272C240.797 53.6418 239.906 54.2682 239.185 55.2065C238.46 56.1448 237.729 57.8563 236.985 60.3369C236.194 62.9825 236.103 65.0632 236.718 66.579C237.331 68.0947 238.683 69.1673 240.775 69.7937C241.753 70.0873 242.788 70.195 243.882 70.1167C244.971 70.037 246.189 69.7448 247.531 69.24Z" fill="white"/>
<path d="M257.643 76.6977C258.058 76.8068 258.52 76.7858 259.029 76.6334C259.538 76.4809 260.062 76.2334 260.603 75.8909L271.839 68.4057C272.064 68.2533 272.267 68.0701 272.447 67.8575C272.627 67.645 272.816 67.3891 273.013 67.0871C273.127 66.8899 273.093 66.6844 272.911 66.4704C272.73 66.2565 272.458 66.0649 272.099 65.8999L272.612 65.0176C273.338 65.3727 274.033 65.5965 274.697 65.6874C275.361 65.7769 275.993 65.7349 276.596 65.5601L277.513 66.0929L276.395 83.4194C276.306 84.5492 276.301 85.4693 276.376 86.181C276.452 86.8928 276.655 87.4745 276.985 87.9275L276.471 88.8099L269.174 84.5744L269.685 83.6907C270.084 83.9451 270.496 84.0095 270.921 83.8836C271.348 83.7592 271.674 83.5005 271.902 83.1075C271.938 83.0432 271.979 82.9062 272.018 82.6992C272.058 82.4937 272.091 82.3315 272.113 82.2126L272.247 80.1585L264.107 75.4336L262.604 76.4963C261.846 77.0193 261.493 77.5297 261.544 78.0289C261.595 78.5281 261.961 79.0524 262.643 79.602L262.132 80.4857L257.13 77.5828L257.643 76.6977ZM272.829 69.6362L265.688 74.4772L265.63 74.575L272.264 78.426L272.307 78.3519L272.931 69.6949L272.829 69.6362Z" fill="white"/>
<path d="M298.095 79.8789L298.956 80.6871C299.039 80.9724 299.165 81.2325 299.335 81.4702C299.503 81.7065 299.746 81.9722 300.062 82.2686L309.876 91.4723C310.136 91.7422 310.396 91.9533 310.658 92.1072C310.918 92.261 311.214 92.3896 311.548 92.4945L312.387 93.2817L308.894 97.0068L308.12 96.2797C308.471 95.1569 308.554 94.1403 308.371 93.23C308.188 92.3183 307.722 91.5129 306.977 90.8123L305.556 89.4797L294.727 101.026C294.39 101.357 294.222 101.687 294.226 102.014C294.229 102.341 294.385 102.741 294.697 103.215L293.998 103.961L288.64 98.9351L289.339 98.1898C289.887 98.4695 290.301 98.5939 290.587 98.5632C290.874 98.5324 291.176 98.345 291.499 97.9996L302.329 86.4538L301.125 85.3239C300.222 84.4766 299.3 83.969 298.364 83.804C297.425 83.639 296.431 83.8152 295.38 84.3311L294.605 83.604L298.095 79.8789Z" fill="white"/>
<path d="M326.191 111.53L325.339 112.094C325.043 111.747 324.706 111.54 324.331 111.47C323.955 111.4 323.57 111.495 323.176 111.757L317.973 115.202L323.642 123.764L328.845 120.319C329.224 120.068 329.459 119.765 329.552 119.408C329.645 119.052 329.593 118.656 329.396 118.22L330.247 117.656L334.302 123.782L333.451 124.346C333.094 123.945 332.739 123.725 332.387 123.689C332.033 123.651 331.667 123.759 331.289 124.009L319.131 132.059C318.736 132.32 318.497 132.585 318.413 132.852C318.329 133.119 318.384 133.554 318.58 134.156L317.73 134.72L313.688 128.619L314.54 128.056C315.007 128.454 315.385 128.669 315.668 128.706C315.952 128.741 316.292 128.629 316.688 128.367L322.387 124.592L316.719 116.033L311.019 119.807C310.613 120.052 310.374 120.333 310.302 120.653C310.229 120.972 310.29 121.397 310.485 121.93L309.633 122.493L305.578 116.367L306.43 115.804C306.874 116.169 307.246 116.378 307.541 116.43C307.836 116.483 308.182 116.378 308.576 116.117L320.733 108.067C321.112 107.816 321.343 107.505 321.424 107.131C321.506 106.759 321.459 106.371 321.283 105.968L322.134 105.404L326.191 111.53Z" fill="white"/>
<path d="M345.449 148.424C346.434 151.203 346.321 153.869 345.11 156.418C343.897 158.967 341.935 160.722 339.226 161.684C336.553 162.632 333.953 162.506 331.431 161.305C328.907 160.102 327.146 158.093 326.146 155.275C325.14 152.439 325.239 149.763 326.444 147.249C327.648 144.735 329.588 143.002 332.261 142.054C334.964 141.074 337.585 141.193 340.124 142.409C342.662 143.625 344.436 145.63 345.449 148.424ZM344.031 148.926C343.329 147.004 342.185 145.887 340.598 145.574C339.012 145.261 336.779 145.626 333.897 146.669C331.028 147.687 329.084 148.809 328.065 150.039C327.045 151.266 326.876 152.844 327.561 154.772C328.24 156.681 329.362 157.796 330.931 158.117C332.499 158.437 334.718 158.087 337.589 157.069C340.475 156.044 342.437 154.91 343.47 153.667C344.503 152.424 344.691 150.841 344.031 148.926Z" fill="white"/>
<path d="M352.158 174.426L352.987 181.785L351.971 181.9C351.838 181.401 351.618 181.054 351.312 180.861C351.004 180.668 350.55 180.605 349.947 180.673L334.584 182.403L335.333 189.058C335.454 190.133 335.886 191.049 336.627 191.807C337.369 192.565 338.268 192.983 339.324 193.061L339.443 194.117L334.454 194.679L332.425 176.648L333.44 176.533C333.532 177.017 333.738 177.371 334.058 177.592C334.378 177.812 334.848 177.898 335.472 177.849L349.455 176.276C350.037 176.21 350.452 176.049 350.701 175.793C350.947 175.537 351.095 175.121 351.144 174.54L352.158 174.426Z" fill="white"/>
<path d="M354.045 207.948L353.56 215.278L352.541 215.211C352.498 214.736 352.347 214.361 352.091 214.087C351.835 213.813 351.393 213.666 350.769 213.645L336.729 212.715C336.088 212.654 335.623 212.74 335.333 212.978C335.042 213.214 334.852 213.567 334.765 214.034L333.746 213.967L334.231 206.637L335.251 206.704C335.259 207.158 335.396 207.526 335.662 207.811C335.926 208.095 336.381 208.257 337.022 208.301L351.063 209.231C351.687 209.252 352.148 209.144 352.449 208.909C352.749 208.673 352.942 208.33 353.029 207.883L354.045 207.948Z" fill="white"/>
<path d="M332.027 244.326L330.728 244.939C329.908 243.185 329.406 241.62 329.221 240.245C329.035 238.867 329.112 237.522 329.447 236.206C330.207 233.233 331.781 231.067 334.168 229.708C336.555 228.349 339.178 228.036 342.037 228.766C344.914 229.501 347.037 231.009 348.407 233.286C349.776 235.564 350.116 238.058 349.425 240.763C349.278 241.335 349.109 241.861 348.919 242.339C348.727 242.817 348.488 243.315 348.202 243.83C347.933 244.269 347.736 244.618 347.61 244.881C347.484 245.143 347.402 245.392 347.361 245.625C347.324 245.697 347.314 245.79 347.332 245.908C347.352 246.024 347.396 246.172 347.468 246.352C347.476 246.396 347.494 246.44 347.521 246.488C347.549 246.536 347.574 246.582 347.602 246.631L347.339 247.66L342.804 246.501L343.067 245.471C344.135 245.339 345.123 244.839 346.026 243.975C346.929 243.111 347.539 242.068 347.851 240.849C347.963 240.409 348.01 239.955 347.995 239.484C347.979 239.013 347.88 238.52 347.7 238.007C347.342 236.961 346.68 236.097 345.713 235.413C344.745 234.73 343.006 234.067 340.497 233.425C337.821 232.741 335.738 232.737 334.248 233.411C332.757 234.085 331.742 235.48 331.201 237.596C330.948 238.586 330.882 239.625 331.004 240.713C331.127 241.801 331.468 243.005 332.027 244.326Z" fill="white"/>
</svg>
