<svg width="400" height="400" viewBox="0 0 400 400" fill="none" xmlns="http://www.w3.org/2000/svg">
<path d="M186.66 64.7396C186.689 64.7302 189.244 63.6246 195.618 63.3205C195.331 69.6289 194.239 72.2008 194.199 72.2881L193.468 73.877H202.587L204.336 73.8675L203.605 72.2786C203.594 72.2551 202.453 69.6973 202.156 63.3205C208.558 63.6104 211.133 64.7279 211.154 64.7349L212.745 65.4752L212.743 54.6216L211.154 55.3454C211.123 55.3524 208.549 56.4934 202.146 56.7975C202.453 50.3995 203.594 47.8252 203.605 47.804L204.36 46.201L193.499 46.2057L194.199 47.7875C194.209 47.8182 195.324 50.3925 195.618 56.7928C189.249 56.4816 186.691 55.3524 186.677 55.3454L185.074 54.591L185.076 65.4421L186.66 64.7396Z" fill="#58595B"/>
<path d="M376.091 131.305H21.7158V141.258H376.091V131.305Z" fill="#58595B"/>
<path d="M156.355 88.5357C172.805 88.5357 181.013 100.087 181.013 100.087H193.401C193.401 100.087 184.651 78.4601 156.687 78.4601C121.083 78.4601 112.556 101.31 55.8936 101.31C41.7255 101.31 22.2557 99.6297 21.7182 99.6297L21.7158 109.356C21.7158 109.356 32.6636 111.367 55.2524 111.367C119.343 111.367 124.15 88.5357 156.355 88.5357Z" fill="#58595B"/>
<path d="M204.407 100.087H216.795C216.795 100.087 225.003 88.5357 241.453 88.5357C273.656 88.5357 278.462 111.367 342.556 111.367C365.145 111.367 376.092 109.356 376.092 109.356L376.09 99.6297C375.553 99.6297 356.083 101.313 341.915 101.313C285.249 101.313 276.725 78.4601 241.121 78.4601C213.157 78.4601 204.407 100.087 204.407 100.087Z" fill="#58595B"/>
<path d="M340.551 303.383L326.882 323.935L313.217 303.383C311.929 301.493 309.355 301.002 307.464 302.287C305.571 303.572 305.083 306.149 306.368 308.042L322.741 332.104V347.894C322.741 350.18 324.596 352.033 326.882 352.033C329.172 352.033 331.024 350.18 331.024 347.894V332.104L347.399 308.042C348.686 306.149 348.196 303.572 346.303 302.287C344.417 301 341.836 301.493 340.551 303.383Z" fill="#58595B"/>
<path d="M205.598 301.928C203.314 301.928 201.461 303.778 201.458 306.065C201.458 306.065 201.442 327.744 201.442 334.09C201.442 339.488 195.744 344.224 188.563 344.224C180.836 344.224 175.687 338.937 175.687 333.998C175.687 327.649 175.671 306.065 175.671 306.065C175.671 303.778 173.815 301.928 171.529 301.928C169.24 301.928 167.389 303.781 167.389 306.067C167.389 306.067 167.403 327.548 167.403 333.302C167.403 344.795 177.245 352.506 188.563 352.506C199.867 352.506 209.724 344.821 209.724 333.302C209.724 330.931 209.74 306.067 209.74 306.067C209.74 303.781 207.885 301.928 205.598 301.928Z" fill="#58595B"/>
<path d="M88.1663 203.783C88.131 199.342 88.1074 195.422 88.1098 193.517C88.1121 191.973 88.1239 187.272 96.5022 187.209L101.391 187.168H101.523C108.579 187.168 111.132 191.275 111.161 195.132C111.179 197.367 110.34 199.399 108.798 200.86C106.868 202.69 103.845 203.673 100.062 203.699L88.1663 203.783ZM114.501 206.876C117.733 203.819 119.489 199.623 119.452 195.063C119.386 187.246 113.751 178.88 101.523 178.88H101.33L96.4503 178.922C86.2144 178.995 79.84 184.58 79.8187 193.498C79.807 199.467 80.0663 224.012 80.0733 225.054C80.0993 227.332 81.9475 229.156 84.2177 229.156H84.2672C86.5539 229.13 88.3927 227.259 88.3644 224.967C88.3644 224.847 88.2394 212.074 88.2394 212.074L100.118 211.987C106.043 211.947 111.017 210.179 114.501 206.876Z" fill="#58595B"/>
<path d="M286.103 186.993C288.394 186.993 290.25 185.138 290.25 182.849C290.25 180.56 288.394 178.702 286.103 178.702H258.156C255.867 178.702 254.016 180.553 254.009 182.84C254.009 183.879 253.948 208.427 254.009 214.398C254.099 223.314 260.516 228.852 270.752 228.852H286.103C288.394 228.852 290.25 226.996 290.25 224.707C290.25 222.413 288.394 220.561 286.103 220.561H270.752C262.366 220.561 262.314 215.858 262.298 214.311C262.284 212.904 262.279 210.388 262.277 207.38H282.206C284.493 207.38 286.348 205.525 286.348 203.234C286.348 200.945 284.493 199.089 282.206 199.089H262.277C262.279 194.594 262.284 190.105 262.288 186.993H286.103Z" fill="#58595B"/>
<path d="M51.6584 301.937H38.2023C27.9758 301.937 21.5636 307.472 21.4741 316.378C21.4128 322.342 21.4717 346.869 21.4741 347.908C21.4788 350.193 23.3317 352.041 25.6137 352.041H25.6231C27.9122 352.034 29.7604 350.176 29.7556 347.89C29.7556 347.741 29.7344 339.132 29.7321 330.789H49.1737C51.4627 330.789 53.3156 328.936 53.3156 326.649C53.3156 324.36 51.4627 322.507 49.1737 322.507H29.7321C29.7344 319.895 29.7439 317.729 29.7556 316.463C29.7698 314.919 29.8217 310.221 38.2023 310.221H51.6584C53.9474 310.221 55.8027 308.368 55.8027 306.079C55.8027 303.79 53.9474 301.937 51.6584 301.937Z" fill="#58595B"/>
<path d="M160.463 200.305C158.547 202.254 155.454 203.301 151.536 203.329L139.643 203.416C139.603 198.973 139.584 195.052 139.586 193.145C139.588 191.601 139.598 186.9 147.978 186.841L152.863 186.799H153C160.053 186.799 162.606 190.903 162.637 194.765C162.646 196.271 162.281 198.459 160.463 200.305ZM153 178.508H152.802L147.927 178.548C137.686 178.626 131.314 184.21 131.293 193.129C131.283 199.1 131.538 223.645 131.55 224.687C131.576 226.96 133.424 228.789 135.694 228.789H135.736C138.028 228.763 139.862 226.889 139.841 224.598C139.838 224.475 139.711 211.705 139.711 211.705L151.595 211.62C159.386 211.566 163.931 208.598 166.373 206.118C169.344 203.103 170.961 199.046 170.923 194.696C170.862 186.879 165.225 178.508 153 178.508Z" fill="#58595B"/>
<path d="M215.13 220.561H201.424C193.034 220.561 192.985 215.858 192.971 214.313C192.909 208.394 192.968 183.113 192.971 182.859C192.978 180.57 191.122 178.71 188.836 178.702H188.824C186.542 178.702 184.687 180.553 184.68 182.84C184.677 183.879 184.621 208.427 184.68 214.398C184.769 223.312 191.188 228.852 201.424 228.852H215.13C217.419 228.852 219.272 226.996 219.272 224.705C219.272 222.416 217.419 220.561 215.13 220.561Z" fill="#58595B"/>
<path d="M236.405 224.707V182.851C236.405 180.56 234.55 178.705 232.261 178.705C229.972 178.705 228.117 180.56 228.117 182.851V224.707C228.117 226.996 229.972 228.852 232.261 228.852C234.55 228.852 236.405 226.996 236.405 224.707Z" fill="#58595B"/>
<path d="M157.943 248.458C160.23 248.458 162.08 246.607 162.08 244.321C162.08 242.036 160.23 240.183 157.943 240.183H134.409C132.127 240.183 130.279 242.032 130.272 244.314C130.272 245.351 130.215 269.854 130.272 275.811C130.361 284.708 136.766 290.238 146.986 290.238H157.943C160.23 290.238 162.08 288.385 162.08 286.101C162.08 283.814 160.23 281.961 157.943 281.961H146.986C138.612 281.961 138.563 277.268 138.546 275.726C138.532 274.319 138.527 271.808 138.523 268.807H154.527C156.809 268.807 158.662 266.954 158.662 264.67C158.662 262.386 156.809 260.533 154.527 260.533H138.523C138.527 256.044 138.532 251.565 138.539 248.458H157.943Z" fill="#58595B"/>
<path d="M111.801 240.186C109.517 240.186 107.666 242.039 107.666 244.323V286.103C107.666 288.388 109.517 290.238 111.801 290.238C114.088 290.238 115.938 288.388 115.938 286.103V244.323C115.938 242.039 114.088 240.186 111.801 240.186Z" fill="#58595B"/>
<path d="M254.913 343.749H238.788C230.408 343.749 230.356 339.051 230.342 337.507C230.283 331.597 230.342 306.335 230.342 306.083C230.346 303.794 228.498 301.936 226.211 301.931H226.2C223.92 301.931 222.065 303.779 222.06 306.064C222.055 307.103 221.999 331.627 222.06 337.592C222.152 346.498 228.562 352.033 238.788 352.033H254.913C257.197 352.033 259.053 350.18 259.053 347.894C259.053 345.602 257.197 343.749 254.913 343.749Z" fill="#58595B"/>
<path d="M324.695 220.563H313.366V186.993H324.695C334.733 186.993 339.825 192.642 339.825 203.778C339.825 214.915 334.733 220.563 324.695 220.563ZM324.695 178.705H309.224C306.93 178.705 305.075 180.56 305.075 182.849V224.707C305.075 226.996 306.93 228.852 309.224 228.852H324.695C339.361 228.852 348.116 219.479 348.116 203.778C348.116 188.08 339.361 178.705 324.695 178.705Z" fill="#58595B"/>
<path d="M296.637 301.46H257.804C255.517 301.46 253.664 303.315 253.664 305.599C253.664 307.891 255.517 309.744 257.804 309.744H273.08V347.894C273.08 350.18 274.933 352.033 277.222 352.033C279.504 352.033 281.361 350.18 281.361 347.894V309.744H296.637C298.922 309.744 300.775 307.891 300.775 305.599C300.775 303.315 298.922 301.46 296.637 301.46Z" fill="#58595B"/>
<path d="M36.5662 204.457C39.1146 197.385 41.2811 191.437 41.8209 190.113C43.035 187.142 44.249 187.142 44.7724 187.142C45.5904 187.142 46.5145 187.142 47.7262 190.113C48.2637 191.437 50.4325 197.385 52.9785 204.457H36.5662ZM64.8174 229.283C65.2842 229.283 65.7557 229.208 66.2248 229.04C68.3984 228.265 69.5346 225.87 68.759 223.691C68.2781 222.341 56.9366 190.53 55.4774 186.949C53.2638 181.522 49.6617 178.769 44.7724 178.769C42.0213 178.769 36.9717 179.832 34.0674 186.949C32.6105 190.53 21.269 222.341 20.7834 223.691C20.0101 225.87 21.144 228.265 23.3247 229.04C25.4982 229.818 27.8933 228.68 28.6689 226.504C30.0056 222.76 31.7618 217.843 33.5605 212.831H55.9866C57.7829 217.843 59.5416 222.76 60.8759 226.504C61.4864 228.215 63.0965 229.283 64.8174 229.283Z" fill="#58595B"/>
<path d="M85.2448 248.444C88.0902 248.444 90.6669 249.51 90.6669 249.51C92.772 250.415 95.2049 249.449 96.1101 247.348C97.0154 245.25 96.0441 242.815 93.9413 241.912C93.5288 241.735 89.7616 240.172 85.2448 240.172C70.6077 240.172 61.8711 249.526 61.8711 265.198C61.8711 280.866 70.6077 290.225 85.2448 290.225C89.7616 290.225 93.5288 288.659 93.946 288.478C96.0371 287.58 96.9965 285.161 96.1054 283.065C95.2167 280.967 92.7933 279.991 90.6905 280.87C90.6905 280.87 88.0879 281.948 85.2448 281.948C75.2258 281.948 70.148 276.314 70.148 265.198C70.148 254.081 75.2258 248.444 85.2448 248.444Z" fill="#58595B"/>
<path d="M249.764 248.444C252.607 248.444 255.187 249.515 255.187 249.515C257.287 250.42 259.727 249.451 260.63 247.35C261.533 245.252 260.561 242.817 258.463 241.914C258.048 241.735 254.284 240.172 249.764 240.172C235.13 240.172 226.393 249.526 226.393 265.198C226.393 280.868 235.13 290.225 249.764 290.225C254.284 290.225 258.048 288.659 258.466 288.478C260.557 287.58 261.519 285.161 260.627 283.065C259.734 280.969 257.311 279.991 255.21 280.873C255.21 280.873 252.607 281.948 249.764 281.948C239.745 281.948 234.665 276.314 234.665 265.198C234.665 254.083 239.745 248.444 249.764 248.444Z" fill="#58595B"/>
<path d="M142.237 310.213C146.396 310.213 150.347 312.45 150.347 312.45C152.351 313.617 154.882 312.954 156.038 310.977C157.193 309.001 156.526 306.467 154.552 305.312C153.961 304.965 148.576 301.929 142.237 301.929C127.588 301.929 118.842 311.292 118.842 326.981C118.842 342.67 127.588 352.033 142.237 352.033C148.524 352.033 153.942 349.002 154.536 348.66C156.511 347.514 157.179 344.994 156.045 343.016C154.913 341.038 152.381 340.352 150.399 341.481C150.399 341.481 146.365 343.752 142.237 343.752C132.209 343.752 127.124 338.108 127.124 326.981C127.124 315.856 132.209 310.213 142.237 310.213Z" fill="#58595B"/>
<path d="M210.907 240.186C208.62 240.186 206.768 242.039 206.768 244.323V262.591L207.06 275.064L206.079 273.47C203.012 269.203 188.745 249.351 183.528 242.053C182.936 241.223 181.491 240.186 179.905 240.186C177.618 240.186 175.768 242.039 175.768 244.323V286.103C175.768 288.388 177.618 290.238 179.905 290.238C182.184 290.238 184.04 288.388 184.04 286.103V266.692L183.776 255.401L184.759 256.999C187.901 261.367 202.142 281.191 207.279 288.374C207.873 289.203 209.373 290.238 210.907 290.238C213.192 290.238 215.044 288.388 215.044 286.103V244.323C215.044 242.039 213.192 240.186 210.907 240.186Z" fill="#58595B"/>
<path d="M77.0848 327.41C79.6331 320.345 81.7973 314.402 82.3371 313.077C83.5465 310.109 84.7629 310.109 85.2839 310.109C86.0995 310.109 87.0236 310.109 88.2353 313.077C88.7728 314.402 90.9393 320.345 93.4829 327.41H77.0848ZM95.9794 309.916C93.7658 304.494 90.1684 301.742 85.2839 301.742C82.5351 301.742 77.4879 302.803 74.5859 309.918C73.1314 313.494 61.8017 345.277 61.3208 346.625C60.5428 348.806 61.6744 351.196 63.8503 351.972C66.0262 352.75 68.4213 351.613 69.1969 349.438C70.5312 345.696 72.2827 340.786 74.0814 335.779H96.4886C98.2826 340.786 100.039 345.696 101.373 349.438C101.984 351.149 103.594 352.215 105.312 352.215C105.779 352.215 106.251 352.137 106.717 351.972C108.891 351.196 110.027 348.806 109.252 346.625C108.771 345.277 97.441 313.494 95.9794 309.916Z" fill="#58595B"/>
<path d="M301.03 248.46C303.316 248.46 305.167 246.607 305.167 244.323C305.167 242.036 303.316 240.183 301.03 240.183H277.493C275.218 240.183 273.365 242.032 273.358 244.311C273.356 245.351 273.297 269.854 273.358 275.811C273.45 284.708 279.855 290.238 290.072 290.238H301.03C303.316 290.238 305.167 288.385 305.167 286.101C305.167 283.817 303.316 281.964 301.03 281.964H290.072C281.697 281.964 281.649 277.268 281.633 275.728C281.621 274.319 281.607 268.809 281.607 268.809H297.611C299.898 268.809 301.749 266.957 301.749 264.67C301.749 262.386 299.898 260.533 297.611 260.533H281.607L281.626 248.46H301.03Z" fill="#58595B"/>
<path d="M330.396 282.716C326.207 282.716 322.664 281.217 320.688 278.607C319.828 277.475 318.64 276.853 317.341 276.853C315.221 276.853 312.949 278.48 312.949 280.894C312.949 284.291 318.755 290.352 330.328 290.352C341.881 290.352 348.119 283.013 348.119 276.11C348.119 270.736 344.569 265.969 338.138 262.68C336.499 261.855 334.439 260.912 332.445 259.998L332.119 259.849C330.361 259.04 328.696 258.281 327.407 257.64C324.641 256.299 322.921 254.288 322.921 252.397C322.921 249.931 325.561 247.383 329.983 247.383C333.213 247.383 335.773 248.328 337.591 250.188C338.604 251.256 339.859 251.848 341.115 251.848C343.421 251.848 345.368 249.964 345.368 247.744C345.368 244.552 340.045 240.136 330.054 240.136C320.042 240.136 314.809 246.431 314.809 252.652C314.809 257.685 318.185 262.112 323.852 264.5C327.388 265.99 330.915 267.791 334.196 269.522C337.544 271.259 339.628 273.876 339.628 276.351C339.628 278.006 337.933 282.716 330.396 282.716Z" fill="#58595B"/>
<path d="M37.2773 282.716C33.0834 282.716 29.5426 281.217 27.5647 278.605C26.7043 277.478 25.5162 276.851 24.2243 276.851C22.1003 276.851 19.8301 278.477 19.8301 280.896C19.8301 284.291 25.6387 290.352 37.2042 290.352C48.7626 290.352 54.9956 283.013 54.9956 276.11C54.9956 270.738 51.45 265.967 45.0143 262.68C43.258 261.794 40.9666 260.752 39.1279 259.908L39.0194 259.856C37.249 259.05 35.5847 258.284 34.2881 257.638C31.5228 256.299 29.8043 254.288 29.8043 252.397C29.8043 249.934 32.4446 247.383 36.8647 247.383C40.0944 247.383 42.6545 248.328 44.465 250.188C45.4834 251.256 46.7376 251.846 47.9917 251.846C50.2973 251.846 52.2468 249.967 52.2468 247.744C52.2468 244.552 46.9238 240.136 36.9331 240.136C26.9235 240.136 21.6854 246.431 21.6854 252.652C21.6854 257.683 25.0659 262.11 30.7308 264.5C34.2551 265.983 37.7841 267.789 41.0751 269.522C44.425 271.259 46.5089 273.876 46.5089 276.351C46.5089 278.003 44.8139 282.716 37.2773 282.716Z" fill="#58595B"/>
<path d="M364.139 321.739C355.285 321.739 348.111 328.915 348.111 337.767C348.111 346.619 355.285 353.795 364.139 353.795C372.991 353.795 380.17 346.619 380.17 337.767C380.17 328.915 372.991 321.739 364.139 321.739Z" fill="#58595B"/>
</svg>
