<svg width="383" height="383" viewBox="0 0 383 383" fill="none" xmlns="http://www.w3.org/2000/svg">
<path d="M188.433 100.89C190.537 100.89 192.645 100.89 194.751 100.89C194.751 100.89 193.566 98.3742 193.376 91.7869C199.989 91.9703 202.512 93.1284 202.512 93.1284C202.512 91.025 202.512 88.919 202.512 86.8129C202.512 86.8129 199.986 88.0005 193.376 88.1879C193.565 81.5752 194.751 79.0527 194.751 79.0527C192.646 79.0527 190.539 79.0527 188.433 79.0527C188.433 79.0527 189.594 81.5752 189.777 88.1866C183.187 87.9951 180.674 86.8129 180.674 86.8129C180.674 88.919 180.674 91.025 180.674 93.1284C180.674 93.1284 183.187 91.9743 189.777 91.7882C189.59 98.3742 188.433 100.89 188.433 100.89Z" fill="#89181A"/>
<path d="M270.861 132.241C270.882 151.542 270.83 166.22 270.847 185.52C270.871 208.366 270.847 255.105 270.842 264.705C261.81 262.386 252.401 260.383 243.201 260.101C225.559 259.561 205.654 264.543 191.837 276.504C191.785 276.548 191.735 276.595 191.685 276.642C178.768 265.341 160.619 260.392 144.073 260.18C133.527 260.044 122.761 262.107 112.376 264.431C112.36 245.596 112.343 225.936 112.327 207.147C112.305 182.051 112.379 133.657 112.379 132.245C112.376 130.997 107.449 129.149 107.449 130.396C107.468 149.705 107.483 166.239 107.501 185.548C107.523 210.643 107.449 264.585 107.449 265.999C107.449 267.124 110.601 266.887 111.186 266.746C120.702 264.458 130.688 263.482 140.447 263.309C157.532 263.003 176.682 266.733 189.366 279.248C190.329 280.198 193.038 280.198 194 279.248C206.866 266.552 225.857 262.756 243.199 263.22C252.846 263.478 262.77 264.676 272.117 267.171C272.7 267.327 275.733 267.539 275.733 266.425C275.711 247.124 275.694 226.898 275.675 207.597C275.649 182.409 275.733 131.864 275.733 130.394C275.732 129.144 270.861 130.995 270.861 132.241Z" fill="#89181A"/>
<path d="M132.931 115.18C141.942 108.342 148.452 100.774 159.835 100.774C165.651 100.774 169.539 106.704 169.539 110.327C169.539 112.85 168.862 117.934 163.234 117.934C158.312 117.934 156.888 111.945 158.888 108.634C151.629 108.634 151.239 119.875 163.324 119.875C168.499 119.875 173.832 116.871 173.832 110.632C173.832 106.434 170.853 99.1094 159.815 99.1094C147.713 99.1094 139.98 105.287 130.205 112.611C120.114 120.171 110.995 122.231 98.5605 120.959V122.805C98.5713 122.806 98.5793 122.808 98.5887 122.809C98.586 143.412 98.578 252.29 98.578 253.061C98.578 254.308 103.385 256.158 103.385 254.91C103.387 236.273 103.393 134.29 103.395 123.378C114.093 124.177 124.322 121.712 132.931 115.18Z" fill="#89181A"/>
<path d="M284.436 120.959C272.002 122.229 262.886 120.171 252.794 112.611C243.019 105.287 235.284 99.1094 223.182 99.1094C212.147 99.1094 209.168 106.436 209.168 110.632C209.168 116.871 214.497 119.875 219.673 119.875C231.756 119.875 231.367 108.634 224.109 108.634C226.112 111.947 224.687 117.934 219.763 117.934C214.138 117.934 213.46 112.85 213.46 110.327C213.46 106.704 217.349 100.774 223.162 100.774C234.548 100.774 241.054 108.341 250.068 115.18C258.675 121.712 268.904 124.177 279.606 123.377C279.606 134.289 279.614 236.271 279.614 254.909C279.614 256.157 284.42 254.306 284.42 253.06C284.42 252.288 284.412 143.41 284.412 122.808C284.42 122.806 284.431 122.805 284.439 122.804V120.959H284.436Z" fill="#89181A"/>
<path d="M171.786 182.098C168.809 176.506 158.361 155.055 153.897 145.951C150.895 139.828 146.802 137.501 143.696 136.766C141.561 136.26 131.003 136.774 128.502 136.782V136.951C131.709 138.306 138.096 145.395 140.573 150.752C142.239 154.356 152.236 174.849 155.704 181.418C159.156 187.952 166.739 190.328 169.957 190.723C171.435 190.907 172.972 190.901 174.502 190.867C158.909 211.441 144.545 230.451 146.179 228.196C141.074 234.474 136.209 236.996 131.444 238.441L131.468 239.335C143.926 239.335 152.783 230.16 154.325 228.157C157.036 224.631 170.836 206.165 185.122 187.258V231.915H197.447V173.315C200.08 175.432 203.156 178.756 205.376 182.748C206.569 184.89 212.588 199.01 216.555 204.486C219.886 209.086 225.044 209.809 229.897 209.817C220.871 221.718 211.616 233.901 205.204 242.257C203.004 245.122 200.787 247.896 198.326 250.475C197.349 251.502 192.213 257.329 187.582 257.329C182.498 257.329 179.242 253.354 179.242 249.415C179.242 245.141 181.554 240.692 186.579 239.574C191.351 238.513 195.279 241.052 196.014 241.808C196.014 241.808 200.837 240.452 200.839 240.409C198.093 237.956 190.652 236.517 186.271 237.263C179.492 238.418 173.523 242.944 173.523 249.819C173.523 254.445 178.183 259.408 187.503 259.408C198.711 259.408 206.14 250.861 208.609 248.182C209.811 246.876 237.544 210.041 253.418 189.218H253.391C253.77 188.711 254.087 188.285 254.324 187.96C256.576 184.888 264.561 175.123 260.873 170.838L251.61 170.83V171.348C256.327 174.064 249.264 184.347 245.59 189.22H245.525C241.587 194.408 237.078 200.35 232.437 206.471C231.384 205.424 230.693 204.132 229.971 202.767C227.774 198.601 221.579 186.464 218.371 179.799C216.242 175.377 212.093 171.066 207.893 170.846C204.436 170.665 200.924 170.985 197.448 171.02V171.014C203.956 162.477 209.882 154.788 214.074 149.524C216.326 146.699 218.491 143.885 220.952 141.305C221.93 140.279 227.066 134.451 231.697 134.451C236.781 134.451 240.037 138.426 240.037 142.365C240.037 146.64 237.725 151.09 232.7 152.206C227.928 153.268 224 150.728 223.265 149.973C223.265 149.973 218.442 151.328 218.439 151.372C221.185 153.824 228.627 155.264 233.008 154.518C239.786 153.363 245.755 148.838 245.755 141.962C245.755 137.337 241.096 132.373 231.776 132.373C220.568 132.373 213.139 140.921 210.67 143.6C209.811 144.532 204.584 151.313 197.448 160.667V110.24H185.124V176.866C182.418 180.433 179.642 184.09 176.884 187.728C174.821 186.373 173.084 184.542 171.786 182.098Z" fill="#89181A"/>
<path d="M86.9747 268.715L91.5537 273.994L90.8133 274.635C90.4585 274.364 90.1157 274.223 89.781 274.211C89.4463 274.199 89.046 274.394 88.5814 274.797L82.7317 279.869C80.7609 281.578 79.7648 283.082 79.7447 284.385C79.7233 285.688 80.3097 287.028 81.5053 288.407C82.8148 289.915 84.1108 290.734 85.3975 290.864C86.6841 290.994 88.0123 290.466 89.3807 289.279L96.1956 283.372C96.5772 283.04 96.7794 282.697 96.7941 282.342C96.8115 281.989 96.6736 281.56 96.3817 281.058L97.1208 280.417L100.222 283.994L99.4826 284.636C99.0528 284.278 98.6552 284.088 98.2883 284.066C97.9214 284.045 97.5533 284.194 97.1837 284.514L90.4518 290.35C89.3592 291.272 88.3497 291.891 87.4205 292.204C86.4954 292.518 85.5608 292.59 84.6249 292.42C83.6087 292.244 82.638 291.878 81.7115 291.321C80.785 290.764 79.9361 290.054 79.1636 289.189C78.1554 288.026 77.4056 286.863 76.9143 285.703C76.4229 284.542 76.2167 283.4 76.2957 282.274C76.3412 281.303 76.5996 280.433 77.0682 279.66C77.5382 278.889 78.1755 278.154 78.9842 277.454L85.7777 271.564C86.2289 271.173 86.478 270.81 86.5275 270.48C86.577 270.149 86.478 269.774 86.2356 269.355L86.9747 268.715Z" fill="#89181A"/>
<path d="M106.838 290.051L111.175 293.252L112.513 309.261L112.764 309.447L118.378 301.841C118.669 301.447 118.78 301.063 118.714 300.688C118.647 300.313 118.412 299.92 118.007 299.509L118.588 298.723L122.514 301.619L121.933 302.406C121.431 302.126 120.985 302.016 120.597 302.078C120.208 302.14 119.875 302.36 119.595 302.739L109.87 315.919L108.653 315.022L107.045 295.539L106.816 295.37L99.6378 305.096C99.3579 305.475 99.2415 305.856 99.2897 306.241C99.3365 306.625 99.5762 307.021 100.007 307.428L99.4262 308.215L95.502 305.319L96.083 304.533C96.5851 304.813 97.0296 304.923 97.4192 304.86C97.8062 304.799 98.1409 304.578 98.4207 304.199L106.583 293.14C106.921 292.647 107.063 292.213 107.011 291.837C106.959 291.459 106.707 291.129 106.257 290.841L106.838 290.051Z" fill="#89181A"/>
<path d="M130.755 306.02L137.117 309.177L136.683 310.052C136.241 309.914 135.852 309.908 135.514 310.034C135.176 310.158 134.881 310.493 134.633 311.038L128.642 323.105C128.351 323.649 128.259 324.093 128.363 324.437C128.468 324.783 128.713 325.081 129.097 325.332L128.663 326.207L122.301 323.05L122.736 322.175C123.144 322.337 123.523 322.353 123.875 322.224C124.226 322.096 124.537 321.754 124.811 321.204L130.803 309.135C131.052 308.592 131.124 308.143 131.025 307.79C130.923 307.436 130.689 307.138 130.322 306.895L130.755 306.02Z" fill="#89181A"/>
<path d="M144.761 312.848L152.674 315.155L152.384 316.145C151.842 315.969 151.376 315.932 150.991 316.036C150.604 316.14 150.353 316.384 150.242 316.765C150.197 316.922 150.173 317.108 150.167 317.324C150.165 317.539 150.193 317.751 150.252 317.956L152.53 329.4L152.941 329.519L160.628 320.782C160.809 320.57 160.935 320.41 161.007 320.299C161.078 320.187 161.133 320.072 161.168 319.949C161.268 319.602 161.184 319.266 160.913 318.941C160.64 318.617 160.221 318.372 159.656 318.207L159.93 317.269L165.433 318.874L165.16 319.813C164.582 319.756 164.081 319.842 163.659 320.068C163.237 320.295 162.792 320.668 162.322 321.192L150.665 334.374L149.625 334.07L146.163 316.394C145.99 315.627 145.78 315.057 145.532 314.683C145.283 314.31 144.936 314.01 144.486 313.785L144.761 312.848Z" fill="#89181A"/>
<path d="M173.482 320.098L187.568 321.06C188.005 321.09 188.311 321.079 188.485 321.028C188.661 320.976 188.801 320.855 188.91 320.663L189.621 320.712L189.29 325.563L188.266 325.493C188.031 324.442 187.618 323.666 187.023 323.162C186.429 322.659 185.38 322.356 183.882 322.253L179.13 321.928L178.663 328.758L181.822 328.973C182.674 329.049 183.302 328.964 183.711 328.713C184.119 328.464 184.344 328.037 184.386 327.432L185.41 327.502L185.076 332.381L184.052 332.311C184.033 331.738 183.867 331.293 183.557 330.977C183.246 330.661 182.823 330.485 182.293 330.447L178.565 330.193L178.031 338.025L184.861 338.493C185.904 338.564 186.85 338.316 187.698 337.747C188.548 337.179 189.101 336.405 189.358 335.424L190.384 335.495L190.056 340.292L172.186 339.071L172.251 338.095C172.728 338.091 173.1 337.957 173.365 337.695C173.632 337.432 173.794 337.002 173.854 336.408L174.772 322.966C174.795 322.368 174.691 321.931 174.463 321.652C174.235 321.374 173.883 321.181 173.416 321.076L173.482 320.098Z" fill="#89181A"/>
<path d="M200.41 321.009L208.717 319.864C210.825 319.574 212.468 319.585 213.645 319.897C214.821 320.21 215.75 320.831 216.435 321.76C216.652 322.078 216.832 322.41 216.975 322.755C217.118 323.101 217.216 323.453 217.265 323.813C217.423 324.96 217.22 325.99 216.655 326.899C216.089 327.809 215.277 328.528 214.218 329.059L214.226 329.332L219.155 335.205C219.48 335.618 219.813 335.91 220.153 336.082C220.493 336.254 220.894 336.337 221.353 336.329L221.487 337.297L216.062 338.045L210.268 331.111C209.971 330.768 209.669 330.518 209.358 330.359C209.047 330.199 208.592 330.163 207.99 330.246L207.454 330.32L208.281 336.321C208.37 336.966 208.528 337.374 208.753 337.544C208.978 337.714 209.363 337.835 209.911 337.906L210.045 338.874L203.009 339.845L202.875 338.875C203.435 338.616 203.784 338.366 203.923 338.127C204.063 337.887 204.103 337.481 204.043 336.903L202.202 323.556C202.125 323 201.983 322.627 201.774 322.436C201.566 322.246 201.156 322.092 200.545 321.976L200.41 321.009ZM206.257 321.656L207.255 328.895L209.741 328.552C210.758 328.413 211.524 327.982 212.04 327.262C212.554 326.541 212.739 325.652 212.593 324.595C212.403 323.359 211.941 322.477 211.206 321.948C210.471 321.419 209.394 321.242 207.98 321.419L206.257 321.656Z" fill="#89181A"/>
<path d="M239.4 312.445L240.85 316.629L239.8 316.993C239.108 315.988 238.251 315.313 237.225 314.968C236.2 314.624 235.095 314.657 233.909 315.068C232.974 315.392 232.318 315.897 231.943 316.582C231.567 317.269 231.527 317.924 231.825 318.549C232.075 319.153 232.531 319.584 233.194 319.843C233.857 320.101 234.751 320.228 235.876 320.22C239.118 320.227 241.31 320.54 242.451 321.16C243.592 321.78 244.38 322.724 244.821 323.989C245.414 325.7 245.248 327.326 244.323 328.863C243.398 330.401 242 331.494 240.131 332.142C239.717 332.285 239.314 332.396 238.919 332.476C238.524 332.557 237.563 332.658 236.038 332.786C235.536 332.845 235.145 332.952 234.866 333.106C234.588 333.26 234.436 333.475 234.411 333.752C234.399 333.776 234.393 333.791 234.398 333.801C234.4 333.809 234.404 333.822 234.411 333.839L233.575 334.129L231.721 329.74L232.772 329.375C233.571 330.172 234.582 330.721 235.805 331.026C237.027 331.332 238.187 331.293 239.283 330.913C240.056 330.645 240.717 330.247 241.27 329.721C241.822 329.195 242.186 328.604 242.36 327.948C242.42 327.717 242.436 327.458 242.407 327.17C242.379 326.884 242.316 326.575 242.221 326.243C242.136 326.003 241.976 325.771 241.739 325.548C241.499 325.324 241.202 325.13 240.843 324.967C240.496 324.838 240.082 324.746 239.6 324.692C239.118 324.639 238.341 324.597 237.263 324.569C234.948 324.566 233.202 324.276 232.025 323.697C230.848 323.119 230.031 322.17 229.575 320.852C229.089 319.449 229.183 318.055 229.86 316.669C230.537 315.285 231.693 314.309 233.329 313.741C233.867 313.554 234.404 313.436 234.94 313.384C235.475 313.333 236.07 313.348 236.72 313.428C237.319 313.527 237.749 313.518 238.009 313.399C238.27 313.279 238.428 313.067 238.482 312.76L239.4 312.445Z" fill="#89181A"/>
<path d="M249.209 307.457L255.47 304.105L255.932 304.968C255.565 305.246 255.333 305.561 255.238 305.909C255.144 306.257 255.246 306.69 255.545 307.209L261.903 319.088C262.177 319.639 262.485 319.973 262.827 320.088C263.168 320.203 263.554 320.176 263.981 320.009L264.443 320.871L258.181 324.222L257.719 323.36C258.087 323.122 258.32 322.822 258.419 322.462C258.517 322.101 258.421 321.65 258.13 321.107L251.77 309.228C251.472 308.71 251.149 308.39 250.802 308.267C250.457 308.144 250.078 308.162 249.667 308.32L249.209 307.457Z" fill="#89181A"/>
<path d="M262.594 299.493L263.498 298.795C263.781 298.759 264.049 298.677 264.301 298.552C264.553 298.426 264.843 298.236 265.174 297.98L275.467 290.028C275.764 289.822 276.005 289.606 276.193 289.381C276.38 289.158 276.55 288.895 276.702 288.594L277.583 287.914L280.571 291.783L279.758 292.411C278.747 291.911 277.794 291.68 276.9 291.719C276.004 291.758 275.166 292.081 274.383 292.685L272.894 293.835L282.16 305.83C282.421 306.199 282.709 306.407 283.021 306.452C283.333 306.498 283.737 306.408 284.236 306.182L284.834 306.956L279.213 311.298L278.616 310.524C278.968 310.046 279.15 309.67 279.168 309.394C279.184 309.119 279.053 308.802 278.776 308.445L269.509 296.449L268.245 297.426C267.297 298.158 266.671 298.957 266.367 299.821C266.06 300.686 266.072 301.656 266.398 302.732L265.585 303.359L262.594 299.493Z" fill="#89181A"/>
<path d="M283.25 283.266L288.828 276.739L289.572 277.375C289.292 277.786 289.138 278.105 289.112 278.332C289.084 278.559 289.145 278.737 289.298 278.867C289.408 278.962 289.541 279.037 289.694 279.093C289.848 279.149 290.017 279.169 290.2 279.149L296.963 279.263L297.278 278.895L295.574 272.862C295.478 272.528 295.414 272.325 295.383 272.248C295.354 272.172 295.316 272.117 295.276 272.081C295.055 271.892 294.813 271.848 294.549 271.947C294.285 272.048 293.949 272.31 293.538 272.733L292.794 272.097L296.259 268.043L297.003 268.679C296.804 269.109 296.68 269.504 296.634 269.864C296.588 270.225 296.615 270.623 296.718 271.062L298.785 280.183L303.865 284.523C304.25 284.853 304.573 285.004 304.836 284.977C305.098 284.95 305.469 284.78 305.951 284.467L306.694 285.103L302.025 290.567L301.281 289.931C301.55 289.56 301.661 289.18 301.614 288.789C301.566 288.398 301.391 288.061 301.085 287.775L295.984 283.417L286.679 283.267C285.969 283.262 285.42 283.305 285.032 283.399C284.642 283.491 284.304 283.652 284.013 283.879L283.25 283.266Z" fill="#89181A"/>
<path d="M51.5248 239.39L49.823 232.681L50.771 232.44C50.9651 232.837 51.2075 233.116 51.5007 233.275C51.7939 233.434 52.2384 233.438 52.8342 233.286L60.3387 231.382C62.8665 230.74 64.433 229.847 65.0395 228.703C65.6447 227.558 65.7264 226.109 65.2819 224.357C64.7958 222.439 64.0086 221.138 62.9174 220.452C61.8289 219.767 60.407 219.646 58.649 220.092L49.9101 222.311C49.4187 222.435 49.0853 222.651 48.9113 222.958C48.7359 223.264 48.6649 223.705 48.6997 224.279L47.7518 224.52L46.5977 219.975L47.5469 219.733C47.7692 220.241 48.0383 220.585 48.3556 220.766C48.6729 220.948 49.0679 220.979 49.5432 220.858L58.1777 218.666C59.5688 218.333 60.7497 218.233 61.7177 218.365C62.6871 218.499 63.5493 218.847 64.3112 219.412C65.1373 220.019 65.8388 220.774 66.4119 221.676C66.9849 222.579 67.4254 223.585 67.724 224.694C68.0989 226.172 68.2435 227.535 68.1591 228.78C68.0734 230.027 67.7401 231.13 67.163 232.094C66.6863 232.934 66.0638 233.592 65.2952 234.069C64.5294 234.546 63.6297 234.915 62.592 235.178L53.8772 237.389C53.2975 237.535 52.9119 237.747 52.7191 238.019C52.5276 238.29 52.4459 238.667 52.4727 239.145L51.5248 239.39Z" fill="#89181A"/>
<path d="M44.8732 207.424L44.6242 200.395L45.6016 200.36C45.6886 200.809 45.8694 201.151 46.1398 201.387C46.4103 201.623 46.8441 201.72 47.4412 201.68L53.4676 201.467L53.4609 201.27L47.3676 194.192C47.1226 193.917 46.8976 193.699 46.6914 193.537C46.4879 193.374 46.3032 193.296 46.1398 193.301C45.943 193.328 45.7783 193.455 45.6511 193.687C45.5239 193.919 45.4396 194.232 45.3994 194.628L44.422 194.663L44.1797 187.803L45.1557 187.768C45.4463 188.795 45.6926 189.507 45.8988 189.905C46.1023 190.302 46.3741 190.704 46.7142 191.106L51.3896 196.509L59.5167 190.372C60.4191 189.719 61.0417 189.155 61.3871 188.681C61.7339 188.207 62.003 187.627 62.1958 186.943L63.1718 186.908L63.4851 195.802L62.5077 195.836C62.5064 195.252 62.3283 194.83 61.9749 194.568C61.6214 194.308 61.1889 194.366 60.6761 194.741L54.0794 199.685L55.5281 201.395L60.9051 201.206C61.5196 201.203 61.9561 201.075 62.2092 200.821C62.4636 200.568 62.6095 200.213 62.647 199.76L63.6244 199.725L63.8721 206.756L62.896 206.789C62.8438 206.358 62.6791 206.019 62.398 205.776C62.1168 205.532 61.6696 205.42 61.055 205.441L47.5885 205.915C46.9927 205.955 46.5616 206.102 46.2991 206.357C46.0367 206.611 45.8854 206.955 45.8466 207.39L44.8732 207.424Z" fill="#89181A"/>
<path d="M45.0898 175.907L46.4756 167.718C46.8277 165.639 47.3285 164.091 47.9778 163.072C48.6272 162.056 49.4988 161.363 50.5887 160.993C50.9569 160.883 51.3264 160.812 51.6999 160.78C52.0722 160.748 52.4377 160.761 52.7938 160.822C53.9372 161.016 54.8584 161.515 55.5559 162.321C56.2548 163.127 56.6994 164.11 56.8895 165.269L57.1519 165.343L64.2266 162.443C64.718 162.258 65.0942 162.031 65.362 161.762C65.6297 161.492 65.8252 161.138 65.9551 160.701L66.9191 160.865L66.0127 166.213L57.6687 169.614C57.2523 169.792 56.9229 170.004 56.6806 170.249C56.4383 170.494 56.2642 170.914 56.1638 171.507L56.0741 172.038L62.0469 173.048C62.6895 173.158 63.1274 173.131 63.3563 172.969C63.5853 172.807 63.8156 172.479 64.0472 171.983L65.0112 172.146L63.837 179.081L62.873 178.918C62.7913 178.313 62.6574 177.907 62.4713 177.704C62.2852 177.5 61.909 177.341 61.3399 177.226L48.0568 174.976C47.5025 174.883 47.1035 174.907 46.8585 175.046C46.6148 175.187 46.3457 175.528 46.0512 176.07L45.0898 175.907ZM47.4503 170.577L54.6549 171.797L55.0713 169.345C55.2413 168.342 55.0592 167.491 54.5263 166.788C53.9948 166.088 53.1995 165.646 52.1458 165.469C50.9113 165.279 49.9313 165.452 49.2069 165.988C48.4826 166.525 47.9939 167.488 47.7395 168.878L47.4503 170.577Z" fill="#89181A"/>
<path d="M67.7072 153.996C67.7514 153.588 67.6657 153.155 67.4475 152.693C67.2292 152.234 66.92 151.772 66.5183 151.31L57.8169 141.751C57.6388 141.559 57.4366 141.393 57.209 141.254C56.9827 141.115 56.7123 140.973 56.399 140.828C56.1981 140.748 56.008 140.811 55.8299 141.014C55.6532 141.218 55.5126 141.502 55.4082 141.866L54.4977 141.507C54.7307 140.769 54.8418 140.08 54.8311 139.437C54.8218 138.796 54.6906 138.203 54.4375 137.658L54.8084 136.711L71.3718 135.279C72.4549 135.198 73.3266 135.072 73.9893 134.897C74.6507 134.723 75.1729 134.448 75.5545 134.072L76.4649 134.431L73.5046 141.949L72.5942 141.59C72.7763 141.176 72.7789 140.777 72.5982 140.392C72.4188 140.008 72.1269 139.736 71.7226 139.576C71.6556 139.55 71.5217 139.532 71.3196 139.524C71.1174 139.516 70.9607 139.509 70.8456 139.504L68.8814 139.671L65.5797 148.057L66.8021 149.328C67.4046 149.97 67.9402 150.231 68.4048 150.111C68.8694 149.99 69.3152 149.569 69.7356 148.843L70.6461 149.202L68.6163 154.354L67.7072 153.996ZM58.8398 140.635L64.4484 146.701L64.5501 146.741L67.2413 139.907L67.165 139.878L58.8799 140.532L58.8398 140.635Z" fill="#89181A"/>
<path d="M64.2461 117.781L67.8919 111.764L68.7287 112.271C68.556 112.694 68.5198 113.08 68.6162 113.425C68.714 113.771 69.0246 114.091 69.5441 114.384L81.0652 121.366C81.5834 121.701 82.0172 121.832 82.368 121.758C82.7214 121.685 83.0361 121.469 83.3172 121.11L84.154 121.617L80.5082 127.633L79.6714 127.127C79.8656 126.738 79.9124 126.364 79.8107 126.007C79.7116 125.648 79.397 125.309 78.8708 124.991L67.3483 118.008C66.8275 117.715 66.387 117.603 66.0282 117.671C65.6693 117.739 65.3547 117.945 65.0842 118.287L64.2461 117.781Z" fill="#89181A"/>
<path d="M74.7363 101.498L78.2375 97.4667L94.2359 97.4801L94.4394 97.2458L87.3031 91.0468C86.9349 90.7268 86.5601 90.5835 86.1838 90.617C85.8063 90.6504 85.3979 90.8513 84.9587 91.2181L84.2197 90.5768L87.3875 86.9297L88.1266 87.571C87.8106 88.045 87.6687 88.4774 87.7021 88.8684C87.7356 89.2593 87.9297 89.6074 88.2846 89.9167L100.652 100.657L99.6705 101.787L80.2003 101.752L80.0142 101.967L89.1401 109.893C89.4962 110.202 89.8658 110.349 90.25 110.333C90.6343 110.319 91.0467 110.114 91.4845 109.72L92.2222 110.362L89.0557 114.009L88.3167 113.367C88.6313 112.893 88.7746 112.461 88.7411 112.071C88.7076 111.682 88.5135 111.332 88.1574 111.023L77.781 102.011C77.3164 101.633 76.896 101.455 76.5184 101.475C76.1408 101.497 75.7914 101.719 75.4741 102.141L74.7363 101.498Z" fill="#89181A"/>
<path d="M96.5508 78.7694L101.999 74.3203L102.617 75.0781C102.313 75.4195 102.149 75.7703 102.126 76.1278C102.102 76.4866 102.287 76.891 102.68 77.3422L111.202 87.7774C111.576 88.2661 111.943 88.5353 112.297 88.5835C112.654 88.633 113.022 88.5339 113.406 88.2902L114.026 89.048L108.578 93.4972L107.959 92.7393C108.271 92.4368 108.44 92.1007 108.466 91.7298C108.491 91.359 108.309 90.9345 107.919 90.4579L99.3973 80.0226C99.005 79.5728 98.6274 79.3184 98.2659 79.2635C97.9044 79.2086 97.5389 79.2956 97.1693 79.5286L96.5508 78.7694Z" fill="#89181A"/>
<path d="M119.703 83.2408C119.995 82.9516 120.201 82.5606 120.323 82.0665C120.444 81.5725 120.496 81.0182 120.474 80.4063L119.753 67.4995C119.737 67.2384 119.684 66.9827 119.596 66.731C119.509 66.4793 119.389 66.1994 119.235 65.8902C119.129 65.7 118.941 65.6291 118.676 65.6746C118.411 65.7201 118.123 65.8513 117.811 66.0669L117.332 65.2154C117.977 64.7896 118.5 64.3237 118.897 63.8202C119.294 63.3168 119.565 62.7732 119.713 62.1908L120.599 61.6914L134.353 71.0288C135.242 71.65 135.999 72.1026 136.623 72.3837C137.248 72.6662 137.825 72.7827 138.359 72.7305L138.839 73.5834L131.799 77.5478L131.319 76.6963C131.722 76.4901 131.975 76.1822 132.077 75.7698C132.182 75.3587 132.127 74.9624 131.913 74.5849C131.878 74.5219 131.784 74.4229 131.633 74.2903C131.483 74.1564 131.364 74.052 131.277 73.9757L129.647 72.8671L121.796 77.2894L121.942 79.046C122.005 79.9257 122.254 80.4652 122.693 80.6661C123.132 80.8669 123.74 80.8187 124.525 80.5228L125.005 81.3743L120.18 84.0923L119.703 83.2408ZM121.252 67.2799L121.778 75.5261L121.833 75.6212L128.232 72.0169L128.193 71.9459L121.351 67.2264L121.252 67.2799Z" fill="#89181A"/>
<path d="M140.273 52.5448L145.383 50.9984L158.915 59.5338L159.213 59.4441L156.475 50.3972C156.335 49.9286 156.094 49.6086 155.756 49.4373C155.419 49.2659 154.966 49.2177 154.399 49.294L154.116 48.3581L158.739 46.959L159.023 47.8949C158.504 48.1278 158.154 48.4184 157.974 48.7651C157.793 49.1132 157.773 49.5122 157.908 49.9634L162.652 65.6418L161.219 66.0756L144.76 55.6724L144.49 55.7555L147.989 67.3248C148.126 67.776 148.36 68.0973 148.695 68.2888C149.027 68.4816 149.485 68.5284 150.065 68.428L150.347 69.3639L145.724 70.7617L145.44 69.8258C145.96 69.5928 146.309 69.3023 146.49 68.9542C146.671 68.6074 146.691 68.2071 146.556 67.7559L142.575 54.6C142.384 54.0336 142.122 53.6588 141.792 53.4753C141.461 53.2919 141.047 53.2932 140.553 53.4807L140.273 52.5448Z" fill="#89181A"/>
<path d="M237.011 66.2957L237.545 67.5623C235.837 68.2786 234.32 68.699 232.995 68.8222C231.67 68.944 230.386 68.8208 229.141 68.4473C226.325 67.6051 224.315 66.0145 223.108 63.6768C221.901 61.3405 221.703 58.818 222.515 56.1121C223.33 53.3889 224.855 51.4167 227.088 50.1956C229.323 48.9746 231.719 48.7469 234.282 49.5141C234.823 49.6761 235.318 49.8582 235.77 50.0591C236.221 50.2599 236.687 50.5089 237.169 50.8048C237.578 51.0793 237.906 51.2801 238.151 51.4113C238.398 51.5412 238.631 51.6309 238.852 51.6778C238.919 51.7166 239.008 51.73 239.121 51.7153C239.233 51.7005 239.377 51.6644 239.552 51.6041C239.592 51.5974 239.636 51.5827 239.684 51.5586C239.73 51.5345 239.777 51.5104 239.824 51.4876L240.798 51.7795L239.513 56.0733L238.538 55.7814C238.453 54.7532 238.014 53.7905 237.222 52.8921C236.431 51.9937 235.456 51.3698 234.301 51.0244C233.886 50.8999 233.452 50.8369 233.001 50.8343C232.55 50.8316 232.076 50.9066 231.577 51.0592C230.563 51.3605 229.71 51.9603 229.019 52.8587C228.325 53.7571 227.625 55.3958 226.913 57.771C226.155 60.3042 226.068 62.2965 226.657 63.7478C227.244 65.1992 228.538 66.2261 230.541 66.8259C231.478 67.1071 232.469 67.2102 233.516 67.1352C234.559 67.0589 235.725 66.779 237.011 66.2957Z" fill="#89181A"/>
<path d="M246.693 73.4376C247.09 73.542 247.532 73.522 248.019 73.376C248.507 73.2301 249.009 72.9931 249.527 72.6651L260.285 65.498C260.501 65.3521 260.695 65.1767 260.867 64.9732C261.04 64.7697 261.221 64.5247 261.41 64.2355C261.518 64.0467 261.486 63.8499 261.312 63.645C261.138 63.4402 260.878 63.2567 260.534 63.0987L261.025 62.2539C261.72 62.594 262.386 62.8082 263.022 62.8952C263.658 62.9809 264.263 62.9407 264.84 62.7734L265.718 63.2835L264.647 79.8736C264.563 80.9554 264.557 81.8364 264.63 82.5179C264.702 83.1994 264.896 83.7564 265.212 84.1902L264.721 85.035L257.733 80.9795L258.223 80.1334C258.605 80.377 259 80.4386 259.407 80.3181C259.815 80.199 260.127 79.9513 260.345 79.5751C260.38 79.5135 260.419 79.3823 260.456 79.1841C260.495 78.9873 260.526 78.832 260.547 78.7182L260.676 76.7513L252.882 72.2273L251.443 73.2448C250.717 73.7456 250.379 74.2342 250.428 74.7122C250.476 75.1902 250.827 75.6923 251.48 76.2185L250.99 77.0646L246.201 74.2851L246.693 73.4376ZM261.233 66.6762L254.395 71.3115L254.34 71.4052L260.692 75.0925L260.733 75.0215L261.331 66.7325L261.233 66.6762Z" fill="#89181A"/>
<path d="M285.425 76.4844L286.249 77.2582C286.328 77.5314 286.449 77.7804 286.612 78.008C286.773 78.2343 287.006 78.4887 287.308 78.7725L296.705 87.5851C296.954 87.8435 297.203 88.0456 297.453 88.1929C297.702 88.3402 297.986 88.4634 298.306 88.5638L299.109 89.3176L295.765 92.8844L295.023 92.1881C295.359 91.113 295.44 90.1397 295.264 89.268C295.089 88.3951 294.643 87.6239 293.929 86.9531L292.569 85.6772L282.199 96.7323C281.877 97.0496 281.716 97.3656 281.72 97.6789C281.723 97.9922 281.873 98.3751 282.171 98.829L281.502 99.5426L276.371 94.7307L277.041 94.0171C277.565 94.2848 277.962 94.404 278.236 94.3745C278.511 94.3451 278.8 94.1657 279.109 93.835L289.479 82.7798L288.326 81.698C287.461 80.8866 286.579 80.4006 285.682 80.2426C284.783 80.0846 283.831 80.2533 282.825 80.7474L282.083 80.0512L285.425 76.4844Z" fill="#89181A"/>
<path d="M312.326 106.789L311.511 107.329C311.227 106.997 310.905 106.799 310.546 106.732C310.186 106.665 309.817 106.756 309.44 107.006L304.458 110.305L309.886 118.503L314.868 115.204C315.23 114.965 315.455 114.674 315.545 114.333C315.633 113.991 315.584 113.612 315.395 113.195L316.211 112.655L320.093 118.521L319.278 119.06C318.937 118.676 318.596 118.466 318.259 118.431C317.92 118.395 317.569 118.498 317.208 118.738L305.566 126.446C305.189 126.696 304.96 126.949 304.88 127.205C304.799 127.461 304.851 127.877 305.039 128.454L304.225 128.994L300.355 123.152L301.171 122.612C301.618 122.994 301.979 123.2 302.251 123.235C302.523 123.268 302.848 123.161 303.227 122.911L308.685 119.296L303.257 111.101L297.799 114.714C297.411 114.949 297.182 115.218 297.113 115.524C297.043 115.83 297.102 116.237 297.288 116.747L296.473 117.286L292.59 111.421L293.405 110.881C293.831 111.231 294.187 111.431 294.47 111.481C294.752 111.532 295.083 111.431 295.46 111.181L307.101 103.473C307.464 103.233 307.684 102.935 307.762 102.577C307.841 102.221 307.796 101.849 307.627 101.463L308.442 100.924L312.326 106.789Z" fill="#89181A"/>
<path d="M330.765 142.113C331.709 144.775 331.601 147.327 330.441 149.768C329.279 152.208 327.4 153.889 324.807 154.81C322.247 155.718 319.758 155.597 317.343 154.447C314.926 153.296 313.24 151.372 312.283 148.674C311.319 145.959 311.414 143.396 312.568 140.989C313.721 138.581 315.578 136.922 318.138 136.015C320.726 135.076 323.235 135.19 325.667 136.355C328.097 137.518 329.796 139.438 330.765 142.113ZM329.407 142.594C328.735 140.754 327.64 139.685 326.121 139.385C324.602 139.085 322.464 139.434 319.705 140.433C316.957 141.408 315.096 142.483 314.12 143.66C313.144 144.835 312.982 146.345 313.638 148.192C314.287 150.019 315.363 151.088 316.865 151.394C318.366 151.701 320.49 151.366 323.239 150.392C326.003 149.41 327.881 148.324 328.871 147.134C329.86 145.944 330.039 144.428 329.407 142.594Z" fill="#89181A"/>
<path d="M337.189 167.012L337.983 174.058L337.01 174.168C336.883 173.69 336.673 173.358 336.379 173.173C336.085 172.989 335.65 172.928 335.073 172.994L320.362 174.65L321.08 181.022C321.195 182.051 321.609 182.928 322.318 183.654C323.029 184.38 323.89 184.78 324.901 184.855L325.015 185.866L320.238 186.404L318.295 169.139L319.267 169.029C319.355 169.493 319.552 169.831 319.859 170.043C320.165 170.254 320.615 170.336 321.212 170.289L334.601 168.783C335.158 168.72 335.556 168.566 335.794 168.321C336.03 168.076 336.172 167.677 336.219 167.122L337.189 167.012Z" fill="#89181A"/>
<path d="M338.997 199.109L338.533 206.128L337.557 206.064C337.515 205.608 337.37 205.25 337.125 204.987C336.88 204.725 336.457 204.584 335.86 204.564L322.416 203.674C321.803 203.615 321.357 203.698 321.08 203.925C320.802 204.152 320.62 204.489 320.537 204.936L319.561 204.872L320.025 197.854L321.001 197.918C321.009 198.353 321.14 198.705 321.395 198.978C321.648 199.25 322.083 199.405 322.698 199.447L336.141 200.337C336.738 200.357 337.18 200.254 337.468 200.029C337.756 199.803 337.941 199.475 338.024 199.046L338.997 199.109Z" fill="#89181A"/>
<path d="M317.915 233.94L316.671 234.526C315.885 232.847 315.404 231.349 315.227 230.031C315.049 228.713 315.123 227.425 315.444 226.165C316.171 223.318 317.679 221.244 319.964 219.943C322.25 218.642 324.762 218.342 327.498 219.04C330.254 219.745 332.286 221.188 333.598 223.369C334.909 225.55 335.235 227.937 334.573 230.528C334.433 231.076 334.271 231.579 334.088 232.037C333.905 232.495 333.676 232.972 333.402 233.464C333.144 233.885 332.956 234.219 332.835 234.471C332.715 234.722 332.636 234.96 332.597 235.183C332.561 235.252 332.551 235.341 332.569 235.454C332.588 235.565 332.63 235.707 332.699 235.88C332.707 235.921 332.724 235.964 332.75 236.01C332.776 236.055 332.8 236.099 332.827 236.146L332.575 237.131L328.233 236.022L328.485 235.036C329.508 234.909 330.453 234.431 331.318 233.604C332.183 232.776 332.767 231.777 333.066 230.61C333.173 230.189 333.218 229.754 333.203 229.303C333.189 228.852 333.094 228.381 332.921 227.889C332.578 226.888 331.945 226.06 331.018 225.406C330.092 224.751 328.426 224.116 326.024 223.502C323.462 222.847 321.468 222.843 320.041 223.488C318.614 224.134 317.641 225.47 317.123 227.496C316.881 228.443 316.818 229.438 316.935 230.48C317.052 231.522 317.379 232.674 317.915 233.94Z" fill="#89181A"/>
</svg>
